<svg id="Layer_1" data-name="Layer 1" xmlns="http://www.w3.org/2000/svg" viewBox="0 0 2110 640"><defs><style>.cls-1,.cls-10,.cls-11,.cls-12,.cls-13,.cls-14,.cls-15,.cls-16,.cls-17,.cls-18,.cls-19,.cls-2,.cls-20,.cls-21,.cls-3,.cls-4,.cls-5,.cls-6,.cls-7,.cls-8,.cls-9{fill:none;stroke-width:2px;}.cls-1{stroke:#cddab5;}.cls-2{stroke:#bfd8bc;}.cls-3{stroke:#b2d7c2;}.cls-4{stroke:#a4d5c8;}.cls-5{stroke:#83d3cb;}.cls-6{stroke:#84d1c3;}.cls-7{stroke:#e7dda4;}.cls-8{stroke:#f5df99;}.cls-9{stroke:#d7dbaf;}.cls-10{stroke:#bfb953;}.cls-11{stroke:#a5b664;}.cls-12{stroke:#dcbd3e;}.cls-13{stroke:#8db372;}.cls-14{stroke:#72b07f;}.cls-15{stroke:#b5b859;}.cls-16{stroke:#28a994;}.cls-17{stroke:#57ad8a;}.cls-18{stroke:#08a58f;}.cls-19{stroke:gray;}.cls-20{stroke:#cebb48;}.cls-21{stroke:#08a287;}.cls-22{fill:#fff;}.cls-23{fill:#afb75e;}.cls-24{fill:#cebb48;}.cls-25{fill:#9bb46a;}.cls-26{fill:#7eb179;}.cls-27,.cls-34{fill:#65ae84;}.cls-28{fill:#eabe33;}.cls-29{fill:#48ab90;}.cls-30{fill:#07a797;}.cls-31{fill:#08a287;}.cls-32{font-size:329.83px;}.cls-32,.cls-35{font-family:MyriadPro-Regular, Myriad Pro;}.cls-33{letter-spacing:0.02em;}.cls-34{font-family:ArialRoundedMTBold, Arial Rounded MT Bold;letter-spacing:0em;}.cls-35{font-size:179.31px;}.cls-36{letter-spacing:-0.01em;}.cls-37{letter-spacing:0em;}.cls-38{letter-spacing:-0.01em;}</style></defs><title>logo</title><path class="cls-1" d="M-362.29-868.22l-17,2.81" transform="translate(658.57 979.2)"/><path class="cls-2" d="M-379.32-865.41a216.44,216.44,0,0,0-58,19.71" transform="translate(658.57 979.2)"/><path class="cls-3" d="M-437.36-845.7-451.81-838" transform="translate(658.57 979.2)"/><path class="cls-4" d="M-451.81-838A231.53,231.53,0,0,0-492.39-808" transform="translate(658.57 979.2)"/><path class="cls-5" d="M-492.39-808a231,231,0,0,0-51.14,68.51" transform="translate(658.57 979.2)"/><path class="cls-6" d="M-543.53-739.45c-74.38,152.19,30.86,328.59,198.68,337.06" transform="translate(658.57 979.2)"/><path class="cls-5" d="M-344.85-402.39a226.93,226.93,0,0,0,74.78-8.6" transform="translate(658.57 979.2)"/><path class="cls-4" d="M-270.07-411a175.62,175.62,0,0,0,22.5-7.5" transform="translate(658.57 979.2)"/><path class="cls-3" d="M-247.57-418.49A210.43,210.43,0,0,0-222.82-430" transform="translate(658.57 979.2)"/><path class="cls-2" d="M-222.82-430a222.14,222.14,0,0,0,35.56-23.57" transform="translate(658.57 979.2)"/><path class="cls-1" d="M-187.26-453.56a229,229,0,0,0,28.65-27.39" transform="translate(658.57 979.2)"/><path class="cls-7" d="M-158.61-480.95q45-50.77,55.75-118" transform="translate(658.57 979.2)"/><path class="cls-8" d="M-102.86-598.95c16.25-98.49-32.73-195.67-119.71-243" transform="translate(658.57 979.2)"/><path class="cls-7" d="M-222.57-841.91a231.58,231.58,0,0,0-89.54-27" transform="translate(658.57 979.2)"/><path class="cls-9" d="M-312.11-868.94a233.84,233.84,0,0,0-50.18.72" transform="translate(658.57 979.2)"/><path class="cls-10" d="M-312.11-868.94a13.55,13.55,0,0,0,1.54,6.74c1.28,2.8,3.22,5.12,4.09,7.17,1,2.27,1.28,4.36,2.83,6.45a14.28,14.28,0,0,1,2.83,8.84" transform="translate(658.57 979.2)"/><path class="cls-9" d="M-300.82-839.74a203.43,203.43,0,0,0-50.75-2" transform="translate(658.57 979.2)"/><path class="cls-11" d="M-351.57-841.69a96.87,96.87,0,0,0-4.22-12q-.34-.79-3.45-6.23a27.09,27.09,0,0,1-3.05-8.26" transform="translate(658.57 979.2)"/><path class="cls-12" d="M-222.57-841.91a.92.92,0,0,0,.16.88.53.53,0,0,1,0,.68c-2,2.2,1.06,7.73,2.59,9.88a26.92,26.92,0,0,1,4.66,11.69.08.08,0,0,0,.09.08l.35,0a.92.92,0,0,1,.71.41c1.79,2.73,9.59,15.4,8.72,18.06a5.18,5.18,0,0,1-1,1.8" transform="translate(658.57 979.2)"/><path class="cls-7" d="M-206.32-798.41a204.75,204.75,0,0,0-94.5-41.33" transform="translate(658.57 979.2)"/><path class="cls-1" d="M-351.57-841.69l-18.5,2.46" transform="translate(658.57 979.2)"/><path class="cls-13" d="M-370.07-839.23a31.17,31.17,0,0,0-3.16-11c-.19-.37.1-.76-.59-.82a.55.55,0,0,1-.49-.49,6.42,6.42,0,0,0-1.23-3.46,14.91,14.91,0,0,1-3.78-10.43" transform="translate(658.57 979.2)"/><path class="cls-8" d="M-206.32-798.41A206.56,206.56,0,0,1-127.53-644.7" transform="translate(658.57 979.2)"/><path class="cls-7" d="M-127.53-644.7q2.46,79-46.83,139.75" transform="translate(658.57 979.2)"/><path class="cls-1" d="M-174.36-504.95a209,209,0,0,1-25.19,25.72" transform="translate(658.57 979.2)"/><path class="cls-2" d="M-199.55-479.23a209.88,209.88,0,0,1-35,24.24" transform="translate(658.57 979.2)"/><path class="cls-3" d="M-234.57-455a251,251,0,0,1-23.79,11.29" transform="translate(658.57 979.2)"/><path class="cls-4" d="M-258.36-443.7q-12,4.41-24.19,7.68" transform="translate(658.57 979.2)"/><path class="cls-5" d="M-282.55-436a210.29,210.29,0,0,1-73.27,5.36" transform="translate(658.57 979.2)"/><path class="cls-6" d="M-355.82-430.66c-137-15.63-219.06-154.18-169.71-282" transform="translate(658.57 979.2)"/><path class="cls-5" d="M-525.53-712.7a208.55,208.55,0,0,1,46.51-70" transform="translate(658.57 979.2)"/><path class="cls-4" d="M-479-782.68a214.37,214.37,0,0,1,40-30.94" transform="translate(658.57 979.2)"/><path class="cls-12" d="M-102.86-598.95a1.13,1.13,0,0,1-1.78-.28,1,1,0,0,1-.19-.88,2.47,2.47,0,0,0-.54-2.36,1.23,1.23,0,0,1-.32-.69c-.21-1.85-.45-3.68-.72-5.51-.51-3.48-3.65-5.9-4.48-8.75-2.5-8.67-8.43-15.51-11.37-24.83a1.61,1.61,0,0,0-.61-.82,5.56,5.56,0,0,1-2.44-3.52.64.64,0,0,0-.74-.48c-1.11.22-1.6,1-1.48,2.37" transform="translate(658.57 979.2)"/><path class="cls-2" d="M-370.07-839.23a212.21,212.21,0,0,0-56,18.49" transform="translate(658.57 979.2)"/><path class="cls-14" d="M-426.07-820.74a9.79,9.79,0,0,1-1.74-4.2,16.51,16.51,0,0,0-3.92-7.59c-.86-1-1-3.3-2-4.75a23,23,0,0,1-3.61-8.42" transform="translate(658.57 979.2)"/><path class="cls-15" d="M-158.61-480.95a3.23,3.23,0,0,0-1.37.42.48.48,0,0,1-.66-.17h0a148,148,0,0,1-10.13-21.79c-.42-1.15-1.62-2-3.59-2.45" transform="translate(658.57 979.2)"/><path class="cls-16" d="M-270.07-411l.21-.58a.18.18,0,0,0-.12-.21h0c-.7,0-10.14-19.23-10.89-21.32a10.44,10.44,0,0,0-1.63-2.91" transform="translate(658.57 979.2)"/><path class="cls-16" d="M-479-782.68A176.85,176.85,0,0,0-492.39-808" transform="translate(658.57 979.2)"/><path class="cls-3" d="M-426.07-820.74-439-813.62" transform="translate(658.57 979.2)"/><path class="cls-17" d="M-439-813.62a9.32,9.32,0,0,1-4.4-4.62.31.31,0,0,1,.16-.42.32.32,0,0,1,.14,0h.35a.38.38,0,0,0,.37-.37.5.5,0,0,0,0-.12,39.22,39.22,0,0,0-4.61-9.14c-1.62-2.37-2-4.93-3.69-7.34a8.16,8.16,0,0,1-1.12-2.38" transform="translate(658.57 979.2)"/><path class="cls-14" d="M-222.82-430a12.22,12.22,0,0,1-2.46-4.22c-1.54-4.56-4.14-8.68-5.82-13.1a57.73,57.73,0,0,0-3.34-7.23.08.08,0,0,1,0-.12h0l.1,0c.15-.06.17-.13.06-.22a.36.36,0,0,0-.33-.06" transform="translate(658.57 979.2)"/><path class="cls-13" d="M-187.26-453.56c-.77-1.3-.34-2-1-3.45a183.46,183.46,0,0,0-11.33-22.22" transform="translate(658.57 979.2)"/><path class="cls-17" d="M-247.57-418.49l-.29-1.11q0-.16-.15,0l-.17.19c-.07.09-.12.08-.14,0-.83-3.69-3-7-4.27-10.19-1.95-4.72-4.57-8.63-5.77-14" transform="translate(658.57 979.2)"/><path class="cls-18" d="M-355.82-430.66c-1.88.94-.71,9.78-.66,12a.54.54,0,0,0,.54.53l6,.11a1.26,1.26,0,0,1,1.24,1.26l.05,7.7a1.09,1.09,0,0,0,.37.83,10.86,10.86,0,0,1,3.41,5.89" transform="translate(658.57 979.2)"/><path class="cls-18" d="M-525.53-712.7c-.56-.21-.81-.53-.75-1a.51.51,0,0,0-.38-.57l-.93-.24a1.63,1.63,0,0,1-.77-.45,26.5,26.5,0,0,1-4.5-6.27c-.06-.11-.11-.1-.13,0l-.07.24c-.09.33-.16.33-.22,0l-.66-3.63a2.14,2.14,0,0,0-.48-1,8.06,8.06,0,0,1-2.13-5.74,2,2,0,0,0-.21-.9c-1.25-2.35-2.37-5.44-4.68-6.9a.76.76,0,0,0-.81,0c-.44.28-.87.17-1.28-.33" transform="translate(658.57 979.2)"/><path class="cls-19" d="M683.18-834.68a.52.52,0,0,0-.52-.52h-11a.52.52,0,0,0-.52.52h0v28a.52.52,0,0,0,.52.52h11a.52.52,0,0,0,.52-.52h0v-28" transform="translate(658.57 979.2)"/><path class="cls-19" d="M751.7-657a.3.3,0,0,1-.44,0,.32.32,0,0,1-.08-.21V-834.9a.31.31,0,0,0-.31-.31h0l-11.38,0a.31.31,0,0,0-.31.31h0v250.37a.31.31,0,0,0,.31.31h11.38a.31.31,0,0,0,.31-.31h0v-57.18a.29.29,0,0,1,.1-.23l45.19-41.3a.3.3,0,0,1,.43,0l0,0,72.45,98.84a.3.3,0,0,0,.25.13h13a.3.3,0,0,0,.3-.31.35.35,0,0,0-.05-.18L805.39-691.09a.3.3,0,0,1,0-.41l75.29-71.16a.32.32,0,0,0,0-.44.34.34,0,0,0-.23-.1H866.78a.3.3,0,0,0-.21.08L751.7-657" transform="translate(658.57 979.2)"/><path class="cls-19" d="M2.68-804.35a.35.35,0,0,1,.36-.34.38.38,0,0,1,.26.13l175,220.24a.36.36,0,0,0,.28.13l12.26,0a.35.35,0,0,0,.35-.35V-827.85a.35.35,0,0,0-.35-.35H179.28a.35.35,0,0,0-.35.35v223.41a.36.36,0,0,1-.37.34.34.34,0,0,1-.25-.13L.4-828.08a.39.39,0,0,0-.28-.13l-9.34,0a.35.35,0,0,0-.35.35v243.28a.35.35,0,0,0,.35.35H2.33a.35.35,0,0,0,.35-.35v-219.8" transform="translate(658.57 979.2)"/><path class="cls-19" d="M470.68-763.7v-61a.5.5,0,0,0-.5-.5h-11.1a.4.4,0,0,0-.4.4h0v61.09a.5.5,0,0,1-.5.5h-24.5a.5.5,0,0,0-.5.5v9.5a.5.5,0,0,0,.5.5h24.46a.52.52,0,0,1,.52.52h0q0,67.5,0,135c0,13.81,2,24.34,14,31.27,15.81,9.09,38.68,4.23,53.56-5.2a.58.58,0,0,0,.21-.73l-4.15-8.87a.48.48,0,0,0-.63-.22l-.05,0c-13.76,9.38-42.52,14.83-49.48-5.2q-1.53-4.37-1.51-14.94,0-65.58,0-131.19a.52.52,0,0,1,.53-.52h41.22a.5.5,0,0,0,.5-.49h0v-9.6a.4.4,0,0,0-.4-.4H471.18a.5.5,0,0,1-.5-.5" transform="translate(658.57 979.2)"/><path class="cls-19" d="M384.62-626.88q.12,11.65.3,23.45c.18,11.56,2.87,20.12,16.46,19.21a.59.59,0,0,0,.55-.59v-9.06a.75.75,0,0,0-.58-.73q-5.43-1.24-5.42-6.61,0-80.65,0-161.35a.64.64,0,0,0-.64-.64H384.46a.53.53,0,0,0-.53.53h0q0,54.67,0,109.36a19.1,19.1,0,0,1-1.06,6.43c-11.07,31.08-40.32,55.33-74.24,54.41-38.55-1-46-37.18-46.07-68q-.1-51.07-.14-102.18a.58.58,0,0,0-.57-.57h-11a.36.36,0,0,0-.36.36q-.06,48.41,0,96.74c.06,37.55,6.52,82.75,54.42,84.89C338-579.72,368-598.49,384-627a.32.32,0,0,1,.43-.13.34.34,0,0,1,.17.29" transform="translate(658.57 979.2)"/><path class="cls-19" d="M568.68-719.24V-762.7a.49.49,0,0,0-.49-.5H557.58a.4.4,0,0,0-.4.4h0V-584.7a.5.5,0,0,0,.5.5h11a.51.51,0,0,0,.51-.51h0q0-54.25,0-108.5a22.57,22.57,0,0,1,1.09-7.18c9.94-30.12,34.79-49.91,66.92-51.66a.51.51,0,0,0,.47-.5v-10.08a.53.53,0,0,0-.5-.53c-29.61-1.68-55,18.41-68.22,44-.19.35-.28.33-.28-.07" transform="translate(658.57 979.2)"/><path class="cls-19" d="M683.18-762.67a.53.53,0,0,0-.53-.53H671.71a.53.53,0,0,0-.53.53h0v177.94a.53.53,0,0,0,.53.53h10.94a.53.53,0,0,0,.53-.53h0V-762.67" transform="translate(658.57 979.2)"/><path class="cls-19" d="M50.51-447c13.11.05,23.79-11.42,23.84-25.62S63.8-498.33,50.69-498.38h0C37.57-498.43,26.9-487,26.85-472.76h0C26.8-458.57,37.39-447,50.51-447h0" transform="translate(658.57 979.2)"/><path class="cls-19" d="M593.52-447c13.11.05,23.78-11.42,23.83-25.62s-10.54-25.73-23.65-25.78h0c-13.12-.05-23.78,11.42-23.83,25.62S580.41-447,593.52-447h0" transform="translate(658.57 979.2)"/><path class="cls-19" d="M-.78-469.68q-8.88-13.72-17.77-27.43c-.68-1.05-1.64-1.56-2.78-.95a.5.5,0,0,0-.2.68l0,0,19.65,30.18a1.7,1.7,0,0,1,.29,1v18.51a.5.5,0,0,0,.5.5H.3a.63.63,0,0,0,.63-.62v-18.61a1.62,1.62,0,0,1,.26-.88l19.49-30a.52.52,0,0,0-.16-.73l0,0a2,2,0,0,0-2.74.9q-8.93,13.77-18,27.44a.34.34,0,0,1-.46.09.2.2,0,0,1-.09-.09" transform="translate(658.57 979.2)"/><path class="cls-19" d="M91.7-455.71c8.76,13.4,30.82,11.4,36-4.24,3.63-10.91,2-26.18,1.94-37.72a.53.53,0,0,0-.53-.53h-1.31a.65.65,0,0,0-.66.65h0q0,12.8,0,25.56c-.06,9.95-3.34,20.61-14.72,22.23-15,2.14-22.11-7.39-22.18-21.19q-.06-13.29-.08-26.61a.65.65,0,0,0-.65-.64H88a.53.53,0,0,0-.53.53c0,11.61-2.25,32,4.26,42" transform="translate(658.57 979.2)"/><path class="cls-19" d="M149.43-467.2h16.75a.92.92,0,0,1,.77.42q5.85,9.07,11.56,18.27c.8,1.29,1.67,1.76,3.13,1.22a.39.39,0,0,0,.24-.5s0,0,0-.08L169.74-467a.36.36,0,0,1,.1-.5l.13-.05c12.5-2.49,15.56-17.45,7.25-26.22q-4.16-4.38-8.29-4.4-11,0-21.94,0a.59.59,0,0,0-.58.51c-.41,2.75.05,6.25.05,8.1q-.06,20.85-.29,41.71a.65.65,0,0,0,.64.66h1.49a.63.63,0,0,0,.63-.62V-466.7a.5.5,0,0,1,.5-.5" transform="translate(658.57 979.2)"/><path class="cls-19" d="M221.43-472.2h33a.5.5,0,0,1,.5.5h0l0,24a.52.52,0,0,0,.52.52h1.38a.62.62,0,0,0,.62-.62l0-49.78a.61.61,0,0,0-.61-.61h-1.32a.54.54,0,0,0-.54.54h0v22.33a.63.63,0,0,1-.62.63H221.43a.5.5,0,0,1-.5-.5v-22.37a.63.63,0,0,0-.62-.63H219a.61.61,0,0,0-.62.5c-.43,2.06,0,4.51.05,6q.15,21.92-.18,43.87a.63.63,0,0,0,.62.63h1.59a.5.5,0,0,0,.5-.5v-24a.5.5,0,0,1,.5-.5" transform="translate(658.57 979.2)"/><path class="cls-19" d="M276.93-450.2v-21.5a.5.5,0,0,1,.5-.5h25.75a.5.5,0,0,0,.5-.5v-1.37a.63.63,0,0,0-.62-.63H277.43a.5.5,0,0,1-.5-.5v-20a.5.5,0,0,1,.5-.5h29.5a.5.5,0,0,0,.5-.5v-1.37a.63.63,0,0,0-.62-.63H275a.56.56,0,0,0-.55.48,49,49,0,0,0,0,7.3q.07,21.18-.1,42.83a.38.38,0,0,0,.39.39h32.84a.63.63,0,0,0,.63-.63h0v-1.37a.5.5,0,0,0-.5-.5H277.43a.5.5,0,0,1-.5-.5" transform="translate(658.57 979.2)"/><path class="cls-19" d="M327.47-465.18l24.38,0a.9.9,0,0,1,.82.55q3.43,8,6.81,16.12c.55,1.33,1.34,1.82,2.71,1.25a.48.48,0,0,0,.26-.62v0l-21.38-49.52a1.53,1.53,0,0,0-2-.79,1.49,1.49,0,0,0-.78.78l-21.46,49.55a.51.51,0,0,0,.27.67.45.45,0,0,0,.2,0h1.42a.79.79,0,0,0,.73-.48l7.26-17a.83.83,0,0,1,.76-.5" transform="translate(658.57 979.2)"/><path class="cls-19" d="M377.28-449.45a.35.35,0,0,1-.35-.35v-48.05a.35.35,0,0,0-.35-.35h-1.8a.35.35,0,0,0-.35.35v50.3a.35.35,0,0,0,.35.35h33.05a.35.35,0,0,0,.35-.35v-1.55a.35.35,0,0,0-.35-.35H377.28" transform="translate(658.57 979.2)"/><path class="cls-19" d="M424.58-495.95a.35.35,0,0,1,.35.35v48.05a.35.35,0,0,0,.35.35h1.8a.35.35,0,0,0,.35-.35V-495.6a.35.35,0,0,1,.35-.35h18.3a.35.35,0,0,0,.35-.35v-1.55a.35.35,0,0,0-.35-.35H406a.35.35,0,0,0-.35.35v1.55a.35.35,0,0,0,.35.35h18.55" transform="translate(658.57 979.2)"/><path class="cls-19" d="M460.93-471.77a.43.43,0,0,1,.43-.43h33.16a.43.43,0,0,1,.43.43h0l-.05,24.14a.43.43,0,0,0,.43.43H497a.43.43,0,0,0,.43-.43l-.08-50.15a.43.43,0,0,0-.43-.43h-1.57a.43.43,0,0,0-.43.43h0l0,22.64a.43.43,0,0,1-.43.43H461.36a.43.43,0,0,1-.43-.43h0v-22.68a.43.43,0,0,0-.43-.43h0l-1.78.15a.42.42,0,0,0-.39.42l-.19,49.94a.43.43,0,0,0,.4.44l2,.12a.43.43,0,0,0,.46-.4v-24.2" transform="translate(658.57 979.2)"/><path class="cls-19" d="M530.15-449.91c8.7,5.12,22,4.48,24.68-7.32,2.86-12.66,1.64-27.48,1.58-40.45a.52.52,0,0,0-.52-.52h-1.31a.64.64,0,0,0-.64.64h0c0,12.6,1.19,26.82-1.21,39.15-2,10.5-13.67,10.82-21.48,6.63a.61.61,0,0,0-.84.26h0l-.46.88a.55.55,0,0,0,.2.73" transform="translate(658.57 979.2)"/><path class="cls-19" d="M635.69-454.34c6.75,8.72,20.44,9.86,28.93,3.25,5.1-4,8-12.27,8-18.61q0-14,0-28a.52.52,0,0,0-.53-.52H670.7a.52.52,0,0,0-.52.53h0q0,13,0,26.05c0,8.55-2.66,17.79-11.47,21.14-6.34,2.42-16.94,1.2-21.18-5.29a27.47,27.47,0,0,1-4.35-15.44q0-13.16,0-26.35a.64.64,0,0,0-.63-.64H631a.51.51,0,0,0-.51.52c-.1,11.69-2.46,33.41,5.23,43.34" transform="translate(658.57 979.2)"/><path class="cls-19" d="M692.43-467.2h16.75a1,1,0,0,1,.78.42q5.94,9.22,11.74,18.57a2,2,0,0,0,2.91.88.46.46,0,0,0,.2-.61.08.08,0,0,1,0,0l-12.13-19.17a.32.32,0,0,1,.11-.45.29.29,0,0,1,.13,0c14.79-1.6,15.68-23.15,3.25-29.17-5.88-2.85-19.52-1.41-26.26-1.25a.6.6,0,0,0-.59.6l-.17,49.57a.67.67,0,0,0,.66.67l1.5,0a.63.63,0,0,0,.64-.61h0V-466.7a.5.5,0,0,1,.5-.5" transform="translate(658.57 979.2)"/><path class="cls-19" d="M742.25-493.06,778.4-447.6a1.06,1.06,0,0,0,.83.4h1.57a.63.63,0,0,0,.63-.62V-497.7a.51.51,0,0,0-.5-.5h-1.62a.63.63,0,0,0-.63.63h0v45.42c0,.58-.18.64-.54.19l-36.57-45.94a1.22,1.22,0,0,0-1.71-.18,1.2,1.2,0,0,0-.44.93v49.46a.5.5,0,0,0,.5.5h1.37a.63.63,0,0,0,.63-.62v-45.12a.18.18,0,0,1,.17-.19.21.21,0,0,1,.15.07" transform="translate(658.57 979.2)"/><path class="cls-19" d="M800.93-450.2v-21.5a.5.5,0,0,1,.5-.5h25.75a.5.5,0,0,0,.5-.5v-1.5a.5.5,0,0,0-.5-.5H801.43a.5.5,0,0,1-.5-.5v-20a.5.5,0,0,1,.5-.5h29.5a.5.5,0,0,0,.5-.5v-1.37a.63.63,0,0,0-.62-.63H799a.61.61,0,0,0-.6.48c-.45,2.06,0,4.77,0,6.15q-.07,21.81,0,43.77a.6.6,0,0,0,.6.6h32.6a.63.63,0,0,0,.63-.63h0v-1.24a.63.63,0,0,0-.63-.63H801.43a.5.5,0,0,1-.5-.5" transform="translate(658.57 979.2)"/><path class="cls-19" d="M862.22-469.69q-8.87-13.72-17.76-27.42c-.69-1.05-1.65-1.56-2.79-.95a.5.5,0,0,0-.2.68l0,0,19.65,30.18a1.78,1.78,0,0,1,.29,1v18.5a.5.5,0,0,0,.5.5h1.37a.63.63,0,0,0,.63-.62V-466.4a1.67,1.67,0,0,1,.28-.94l19.47-30a.51.51,0,0,0-.15-.7l0,0c-1.13-.64-2-.15-2.71.91q-9,13.74-18,27.42a.33.33,0,0,1-.46.08.2.2,0,0,1-.09-.09" transform="translate(658.57 979.2)"/><path class="cls-2" d="M-387.32-818.74a125.13,125.13,0,0,0-17,6.29" transform="translate(658.57 979.2)"/><path class="cls-3" d="M-404.36-812.45a174.33,174.33,0,0,0-30.69,17" transform="translate(658.57 979.2)"/><path class="cls-4" d="M-435-795.5A220.62,220.62,0,0,0-455.57-780c-6.86,5.77-4.33,11,1.14,16.51q33.48,33.56,67.07,67" transform="translate(658.57 979.2)"/><path class="cls-3" d="M-387.36-696.45Q-369-678-350.6-659.6c5,5,10.3,9.27,16.2,3.12,2.23-2.32,2.83-6.26,3.58-9.43" transform="translate(658.57 979.2)"/><path class="cls-2" d="M-330.82-665.91l8.46-31.79" transform="translate(658.57 979.2)"/><path class="cls-1" d="M-322.36-697.7l18.75-69.5" transform="translate(658.57 979.2)"/><path class="cls-9" d="M-303.61-767.2q5.37-19.66,10.61-39.34,1.54-5.82,1-8.45-1.06-5.13-7.15-6.4a199.16,199.16,0,0,0-34.18-3.77" transform="translate(658.57 979.2)"/><path class="cls-1" d="M-333.32-825.16a163.07,163.07,0,0,0-54,6.42" transform="translate(658.57 979.2)"/><path class="cls-11" d="M-333.32-825.16a1.46,1.46,0,0,0,1.26.92c.26,0,.27.1,0,.19l-.37.13a.45.45,0,0,0-.27.59h0c.95,2.32,1.51,4.58,2.61,6.76q11.65,23.23,23.51,46.35a7,7,0,0,0,2.94,3" transform="translate(658.57 979.2)"/><path class="cls-13" d="M-322.36-697.7c-5.69-7.6-9.58-17.82-13.23-24.49-1.25-2.29-1.76-4.6-2.7-6.37q-15.27-28.76-29.66-57.93a.14.14,0,0,1,.07-.19h0l.26-.09a.18.18,0,0,0,.12-.23s0,0,0,0a64.89,64.89,0,0,1-6.64-12.16q-.06-.12-.09,0l-.09.32c-.07.23-.15.23-.23,0q-2.85-7.93-6-11.79a18.25,18.25,0,0,1-3.67-6.36,1.46,1.46,0,0,0-.55-.78,5.21,5.21,0,0,0-2.5-.92" transform="translate(658.57 979.2)"/><path class="cls-14" d="M-330.82-665.91a.51.51,0,0,1-.27-.27.21.21,0,0,0-.26-.11l0,0-.25.24a.28.28,0,0,1-.4,0l0-.05c-1.94-3.18-2.09-6.37-4.22-9.44-2.39-3.43-4-9.08-6-13a1.67,1.67,0,0,1-.18-.93.87.87,0,0,0-.44-1,1.47,1.47,0,0,1-.66-.62q-3.15-5.9-6.24-11.81c-.66-1.27-2-2.6-2.59-4.11-1.42-3.94-3.38-7.16-5.18-10.89-1.4-2.91-2.7-5.45-3.88-7.6-6.88-12.41-13.08-25.25-19.48-37.92Q-391.1-783.52-401-803.86c-1.35-2.8-3.94-4.4-3.39-8.59" transform="translate(658.57 979.2)"/><path class="cls-17" d="M-387.36-696.45a29.07,29.07,0,0,0-3.43-11.27c-3.6-6.8-8.73-18.5-14.29-28.22-3-5.21-5.11-10.83-8.11-15.91-3.5-5.94-4.9-10.74-8.68-16.79q-4.11-6.55-11-22.67c-.55-1.28-1.8-2.4-2.16-4.19" transform="translate(658.57 979.2)"/><path class="cls-9" d="M-284.86-799.7l-11.42,42.5" transform="translate(658.57 979.2)"/><path class="cls-1" d="M-296.28-757.2q-12.9,47.84-25.62,95.71c-1.17,4.4-2.21,7.15-.33,10.42,3,5.24,7.51,4.93,13.07,3.46q29.94-7.93,59.84-16" transform="translate(658.57 979.2)"/><path class="cls-9" d="M-249.32-663.66l26.75-7.08" transform="translate(658.57 979.2)"/><path class="cls-7" d="M-222.57-670.74l37.5-10.17" transform="translate(658.57 979.2)"/><path class="cls-7" d="M-185.07-680.91l18.38-4.77c13.7-3.58,12.6-8.45,8-20.43-15.88-41.64-42.67-75.06-83.16-95.09" transform="translate(658.57 979.2)"/><path class="cls-7" d="M-241.82-801.2a196.8,196.8,0,0,0-25-11.17c-13.6-5-15.3.87-18,12.67" transform="translate(658.57 979.2)"/><path class="cls-20" d="M-241.82-801.2c-1.18,2.45-.81,4.53,1.09,6.23a2.21,2.21,0,0,1,.55.8,79.26,79.26,0,0,0,4.71,10.37c.84,1.56,1.53,3.68,2.6,5.3,3.82,5.81,6.11,12.86,8.36,16.49a35.92,35.92,0,0,1,3.39,6.52.21.21,0,0,1-.13.27h0l-.26.08c-.51.17-.38.29.39.38a1,1,0,0,1,.85.78c2.52,7.1,7.49,15.51,10,20.62q2.58,5.24,5.3,10.39a.77.77,0,0,0,.62.42c.75.08.39.47.51.82,3.79,10.47,9.73,18.58,13.69,27.63,1.34,3.07,3.32,6.39,4.49,9.86a.8.8,0,0,0,.78.54l.46,0c.62,0,.65.11.1.39l-.95.47a.49.49,0,0,0-.22.67.47.47,0,0,0,.06.09,1.34,1.34,0,0,1,.34,1.19" transform="translate(658.57 979.2)"/><path class="cls-10" d="M-222.57-670.74a.61.61,0,0,1,.14-.4,2.26,2.26,0,0,0,.09-.55c0-.15,0-.22-.11-.2a.43.43,0,0,1-.52-.28,61.78,61.78,0,0,0-5.1-11.36c-2.26-3.73-3.67-8.26-5.41-11.57-4.25-8.1-9.2-16.23-12.83-24.57a54.64,54.64,0,0,0-2.69-5.19c-2.46-4.22-4.48-9.38-6.56-13.1q-4.47-7.95-8.14-16.31a1.23,1.23,0,0,1,0-.94l.73-1.94a1.26,1.26,0,0,0-.05-1c-1-2-1.93-4.07-2.79-6.16-1-2.44-3.12-4.24-3.74-7.15A15.2,15.2,0,0,0-272-776.9c-1.65-2.77-1.9-5.91-4.1-8.73-1.27-1.63-1.63-3.29-2.45-5.09,0-.11-.09-.1-.12,0l-.11.31c-.14.43-.28.43-.42,0l-2.6-7.56a1.16,1.16,0,0,0-.62-.68l-2.39-1.07" transform="translate(658.57 979.2)"/><path class="cls-11" d="M-249.32-663.66A44.69,44.69,0,0,0-254-676.19C-258.83-685-263.28-694-268-702.83c-2.95-5.46-7.88-15.73-12.72-23.19a2.9,2.9,0,0,1-.05-2.67,1.38,1.38,0,0,0,0-1l-2-4.57a1.59,1.59,0,0,0-.7-.75,7.38,7.38,0,0,1-4-4.79c-1.31-4.67-4.23-15.23-8.75-17.44" transform="translate(658.57 979.2)"/><path class="cls-6" d="M-508.32-710.49c-16.12,33.56-17.93,72.29-10.79,108.37,1.31,6.64,5.47,9.14,12.18,7.41q22.86-5.91,45.57-12.22" transform="translate(658.57 979.2)"/><path class="cls-5" d="M-461.36-606.93l73-19.56" transform="translate(658.57 979.2)"/><path class="cls-4" d="M-388.32-626.49q14.34-3.64,28.61-7.57c5.53-1.52,10.14-5.53,7.92-11.54q-1-2.67-6.16-7.86-37.64-37.68-75.37-75.28" transform="translate(658.57 979.2)"/><path class="cls-5" d="M-433.32-728.74q-15-15.24-30.24-30.22c-5.08-5-10.16-3.37-14.53,1.68a200.52,200.52,0,0,0-30.23,46.79" transform="translate(658.57 979.2)"/><path class="cls-16" d="M-433.32-728.74l-.49,0a.26.26,0,0,0-.24.28.32.32,0,0,0,0,.09l.14.31a.09.09,0,0,1,0,.12h0l-.14,0s0,.14,0,.32h0l.39,4.68a1.88,1.88,0,0,0,.29.9,118.43,118.43,0,0,1,6.63,12.72q1.86,4.14,6.65,13.66c4,7.9,8.83,18.88,13.88,28.05a3.18,3.18,0,0,1,.24,1.28,1.73,1.73,0,0,0,.27.93c2.29,3.87,3.8,8.38,5.77,12.07q2.14,4.05,4,8.26c2.18,5.1,5.76,11.09,7.44,17.28a.24.24,0,0,1-.08.24l-.23.18c-.16.13-.14.22.07.25a.55.55,0,0,1,.5.54" transform="translate(658.57 979.2)"/><path class="cls-18" d="M-461.36-606.93q2.42-4.14,7.54-3.06a.71.71,0,0,0,.68-.24,2.9,2.9,0,0,0,.58-2.95.65.65,0,0,1,.19-.71l1-.89a.42.42,0,0,0,.05-.58.41.41,0,0,0-.13-.1c-1.63-.84-1.31-8.38-1.25-10.23a.49.49,0,0,0-.47-.5h0l-6.87,0a.51.51,0,0,1-.51-.51h0l-.06-14.63a.9.9,0,0,0-.68-.87,12.33,12.33,0,0,0-6.68.08.8.8,0,0,0-.58.77l0,9.93a.75.75,0,0,1-.74.75.76.76,0,0,1-.33-.08c-1.27-.61-1.5-2-1.33-3.37.31-2.5-.32-8.12,1.93-9.33a1,1,0,0,0,.49-.82l-.07-13.22a.6.6,0,0,0-.58-.6l-5.81-.23a1.4,1.4,0,0,0-1.45,1.34v0l-.14,10a.59.59,0,0,1-.6.59.57.57,0,0,1-.33-.11c-2.38-1.66-.93-8.5-1-11.35a.72.72,0,0,1,.44-.69c2.45-1.07,1.55-11.57,1.52-14.2a1.32,1.32,0,0,0-1-1.26,13,13,0,0,0-6.61-.07.59.59,0,0,0-.45.58l.09,10.51a.67.67,0,0,1-.65.67.63.63,0,0,1-.53-.25q-1.86-2.31-1.06-4a2.11,2.11,0,0,0,.21-.93v-6.88a.42.42,0,0,1,.43-.43h.06c2.24.3,1.55-4.4,1.48-6.72a.64.64,0,0,0-.64-.62l-6.6,0a.66.66,0,0,0-.66.6l-.22,2.37a.48.48,0,0,1-.53.43h-.07c-2.81-.75-1.16-8.76-1.13-11.1a.55.55,0,0,1,.56-.54h.54a.51.51,0,0,0,.5-.47l.34-6.35a.89.89,0,0,0-.83-.93h-6.17a.77.77,0,0,0-.76.6l-.47,2a.88.88,0,0,1-.32.48l-.21.14a.62.62,0,0,1-.81-.08c-1.2-1.29-.44-9.37-.49-11.53a1.82,1.82,0,0,0-.3-.91l-1.47-2.14a.57.57,0,0,0-.68-.2,2.87,2.87,0,0,1-3.3-.65" transform="translate(658.57 979.2)"/><path class="cls-9" d="M-219.82-661.49l-18.75,5" transform="translate(658.57 979.2)"/><path class="cls-1" d="M-238.57-656.49l-44,11.78" transform="translate(658.57 979.2)"/><path class="cls-2" d="M-282.59-644.71q-12.92,3.4-25.79,7c-7.19,2-10.9,9.43-5.24,15.11q37.1,37.15,74.28,74.28" transform="translate(658.57 979.2)"/><path class="cls-1" d="M-239.34-548.37q17.49,17.63,35.17,35.1c5.46,5.4,10.44,3.65,15.11-1.79a191.55,191.55,0,0,0,13.95-18.39" transform="translate(658.57 979.2)"/><path class="cls-9" d="M-175.11-533.45a192.86,192.86,0,0,0,11.75-19.25" transform="translate(658.57 979.2)"/><path class="cls-7" d="M-163.36-552.7c19.87-36.81,22.67-77,15.05-117.25-1.57-8.32-7.09-8.85-14.4-6.92q-28.59,7.56-57.11,15.38" transform="translate(658.57 979.2)"/><path class="cls-10" d="M-163.36-552.7a6.36,6.36,0,0,1-3.35-6,1.48,1.48,0,0,0-.3-.9,16.58,16.58,0,0,1-1.93-3.17c-1.4-3-3.54-4.87-4.77-7.89a1.23,1.23,0,0,1,0-.94,1.74,1.74,0,0,0-.8-2.34,1.73,1.73,0,0,1-.68-.74c-.05-.1-7.6-14.89-7.94-15a.56.56,0,0,1-.43-.56v-3.31a.38.38,0,0,0-.37-.37h-.29a.66.66,0,0,1-.63-.45,47.43,47.43,0,0,0-2.06-4.47c-3.89-7.67-7.69-15.14-11.53-23.07-2.45-5.08-5.66-9.68-8-14.8a32.55,32.55,0,0,0-2.39-4.22,159.65,159.65,0,0,1-10.67-19.67.13.13,0,0,1,0-.19l.26-.17a.24.24,0,0,0,.07-.32.23.23,0,0,0-.07-.07,1,1,0,0,0-.65-.11" transform="translate(658.57 979.2)"/><path class="cls-11" d="M-175.11-533.45a6.15,6.15,0,0,1-3.59-5.83,1.84,1.84,0,0,0-.28-.92c-3.67-5.7-5.49-12-8.92-17.66a93.86,93.86,0,0,1-7-13.93c-1-2.57-3.22-4.27-4.28-7.16a59.17,59.17,0,0,0-6.57-12.75,20.72,20.72,0,0,1-2.45-4.89,40.37,40.37,0,0,0-6.07-11.16c-.3-.39-.48-.34-.52.15l-.06.7c-.13,1.35-.23,1.34-.29,0-.21-4.34-2.76-8.35-4-11.19-1.38-3.27-3.58-6.1-4.87-9.15s-2.7-6.3-4.07-9.43c-2.69-6.1-7.18-12.4-9.79-19.36a.63.63,0,0,0-.46-.39l-.3-.06" transform="translate(658.57 979.2)"/><path class="cls-13" d="M-239.34-548.37c1.16-.81,1.61-1.67,1.36-2.57a52.51,52.51,0,0,0-5.85-12.41.75.75,0,0,0-.47-.33l-.35-.07a1.08,1.08,0,0,1-.78-.62l-1.43-3.19c0-.05-.06-.05-.08,0l-.13.28c-.1.22-.18.21-.23,0a41.75,41.75,0,0,0-7.85-16.38,1.29,1.29,0,0,1-.28-.73,12,12,0,0,0-3.4-7.79,1.59,1.59,0,0,1-.44-.85l-.32-1.64a1.18,1.18,0,0,0-.49-.75,8,8,0,0,1-3.63-7.15,1.91,1.91,0,0,0-.24-.94c-1.34-2.28-.88-4.66-2-6.7-1.59-2.84-4-5.28-5.35-7.93-1.45-3-3.05-10.38-6.14-11.24a1.44,1.44,0,0,1-.8-.56l-1.19-1.71a1.65,1.65,0,0,1-.31-1c0-3.54-3.2-5.25-3-9,0-1,.11-2,.19-3.09" transform="translate(658.57 979.2)"/><path class="cls-5" d="M-377.36-619.2l-57.21,15.29" transform="translate(658.57 979.2)"/><path class="cls-6" d="M-434.57-603.91l-30.54,8.21" transform="translate(658.57 979.2)"/><path class="cls-6" d="M-465.11-595.7q-19.5,5-38.85,10.34c-7.2,2-9.6,6.15-7,13.58,11.32,32.54,30.81,63.66,58.63,84.35a201.13,201.13,0,0,0,54,28.48" transform="translate(658.57 979.2)"/><path class="cls-6" d="M-398.36-458.95q6.78,3,10.81-.89c3.79-3.62,5.51-14.64,6.94-20.36" transform="translate(658.57 979.2)"/><path class="cls-5" d="M-380.61-480.2l26.33-98.25" transform="translate(658.57 979.2)"/><path class="cls-4" d="M-354.28-578.45q4.93-17.67,9.59-35.42c1.75-6.69-3.33-13-10.38-11.3q-11.21,2.74-22.29,6" transform="translate(658.57 979.2)"/><path class="cls-16" d="M-354.28-578.45a4.24,4.24,0,0,1-2.81-2.82.36.36,0,0,0-.4-.24l-.3,0a.31.31,0,0,1-.33-.17l-18.42-36a1.06,1.06,0,0,1,0-.87l.19-.49c.13-.33.08-.36-.16-.09l-.24.27a.32.32,0,0,1-.46,0,.13.13,0,0,1-.06-.07.48.48,0,0,1,0-.32" transform="translate(658.57 979.2)"/><path class="cls-18" d="M-380.61-480.2a4.78,4.78,0,0,1-3.08-.44,2.25,2.25,0,0,0-.95-.23c-2.86,0-3.84-2-3.9-4.66q-.13-6-.06-12.06a.56.56,0,0,0-.55-.56l-6.56-.07a.87.87,0,0,1-.86-.87l0-14.5a.61.61,0,0,0-.61-.61h-6.23a1.12,1.12,0,0,1-1.13-1.12l0-14.27a.57.57,0,0,0-.55-.56l-6.07-.07a1.38,1.38,0,0,1-1.36-1.38l0-14.12a.48.48,0,0,0-.49-.48h-6.85a.63.63,0,0,1-.63-.62l-.05-14.91a.48.48,0,0,0-.48-.47h-6.84a.63.63,0,0,1-.63-.62l0-14.77a.62.62,0,0,0-.61-.61h-6.86a.5.5,0,0,1-.5-.5v-15a2.37,2.37,0,0,0-.23-1,1.63,1.63,0,0,1,0-1.46,1.58,1.58,0,0,0,.05-1,5.5,5.5,0,0,1,2.21-6.72" transform="translate(658.57 979.2)"/><path class="cls-21" d="M-398.36-458.95c-.26-2.23-.44-3.8-1.94-5.66a31.46,31.46,0,0,1-5.71-9.55c-1.39-3.93-3.44-6.3-4.54-11.63a1.64,1.64,0,0,0-.5-.85,15.14,15.14,0,0,1-5.47-11.13,1.15,1.15,0,0,0-.47-.85,1.71,1.71,0,0,1-.74-1.89,1.16,1.16,0,0,0-.19-.89,5.11,5.11,0,0,0-2.39-1.82c-1.88-.75-.4-3-2.72-4.16a.93.93,0,0,1-.51-.69l-.7-4a1.33,1.33,0,0,0-.38-.72c-3.12-3-3.92-5.78-6.29-9.22-1.78-2.61-1.78-5.21-2.71-8.13a.69.69,0,0,0-.78-.47l-1.17.21a.56.56,0,0,1-.66-.45v0l-.77-6.61a.81.81,0,0,0-.8-.72c-3.5,0-2.43-3.1-3.31-4.86a10.82,10.82,0,0,0-2.69-3.39,1.1,1.1,0,0,1-.4-.77,9.7,9.7,0,0,0-2.9-6.26,1.64,1.64,0,0,1-.46-.87,38.74,38.74,0,0,0-3.73-10.32.73.73,0,0,0-.76-.39,1.68,1.68,0,0,1-2.09-1.28A77.67,77.67,0,0,0-458.76-578a1.59,1.59,0,0,1-.17-.93,3.3,3.3,0,0,0-.54-2.14,1.27,1.27,0,0,0-.76-.52c-2.85-.6-4.19-7.76-5.3-10.41a5.14,5.14,0,0,1,.42-3.71" transform="translate(658.57 979.2)"/><path class="cls-4" d="M-337-604.7l-14.75,54.5" transform="translate(658.57 979.2)"/><path class="cls-5" d="M-351.78-550.2q-11.79,44.07-23.53,88.15c-1.74,6.54,2,10.35,8.31,11.55,21.3,4,46.28,5.7,67.68,1.51" transform="translate(658.57 979.2)"/><path class="cls-4" d="M-299.32-449a140.93,140.93,0,0,0,37.25-11" transform="translate(658.57 979.2)"/><path class="cls-3" d="M-262.07-460a180.2,180.2,0,0,0,27.29-15" transform="translate(658.57 979.2)"/><path class="cls-2" d="M-234.78-474.95a218.2,218.2,0,0,0,23-17.19c6.71-5.7,4.27-10.87-1.14-16.29q-37.89-38-75.89-75.81" transform="translate(658.57 979.2)"/><path class="cls-3" d="M-288.82-584.24q-14.31-14.43-28.67-28.77c-4.58-4.57-9.61-8.22-15.13-3-2.81,2.64-3.52,7.54-4.41,11.34" transform="translate(658.57 979.2)"/><path class="cls-14" d="M-288.82-584.24c-2.2.53-.48,2.36.3,3.06a1,1,0,0,1,.33.82,7,7,0,0,0,.8,4.48,85.33,85.33,0,0,1,7,13.5.7.7,0,0,0,.64.43h.42a.53.53,0,0,1,.52.51c0,1.7-.28,2.92.58,4.5,2.79,5.11,5.15,10.93,7.67,15.66q4.2,7.88,8.24,15.86c3.88,7.68,9.84,17.84,14,27.23a.81.81,0,0,0,.72.49c.61,0,.8.43.56,1.19a1.1,1.1,0,0,0,.16,1q5.8,7.91,7,13.38c.74,3.33,2.06,5.74,4,7.25a.21.21,0,0,0,.29,0l0,0a.45.45,0,0,1,.8.05" transform="translate(658.57 979.2)"/><path class="cls-17" d="M-262.07-460l-.63-.57a.12.12,0,0,0-.14,0l-.21.21c-.22.22-.36.18-.4-.13l-.7-4.34a1.57,1.57,0,0,0-.38-.8A7.68,7.68,0,0,1-266-468.2a110.61,110.61,0,0,0-7.81-16.05c-15.67-28.17-29.94-57.52-44-86.53-2-4.06-5.36-11.91-8.55-17.61q-1.35-2.42-3.28-6.42c-.94-2-3-7.31-5.26-8.6a1.51,1.51,0,0,1-.57-.58l-.24-.44a.58.58,0,0,0-.53-.3l-.71,0" transform="translate(658.57 979.2)"/><path class="cls-16" d="M-299.32-449a74,74,0,0,0-2.79-7.69q-7.87-15.52-15.77-31c-7.56-14.83-16.82-31.75-23.82-47.4-.26-.58-.52-.93-.8-1a.93.93,0,0,1-.49-.52,104.22,104.22,0,0,0-6.85-14,.48.48,0,0,0-.62-.18l-1.32.65" transform="translate(658.57 979.2)"/><path class="cls-19" d="M50.49-449.36c11.74.06,21.31-10.33,21.38-23.21h0c.06-12.88-9.4-23.37-21.13-23.43h0c-11.74-.06-21.31,10.33-21.37,23.21s9.39,23.37,21.12,23.43h0" transform="translate(658.57 979.2)"/><path class="cls-19" d="M593.48-449.37c11.74.06,21.31-10.33,21.38-23.2h0c.06-12.87-9.4-23.36-21.13-23.42s-21.31,10.33-21.37,23.2h0c-.07,12.87,9.39,23.36,21.12,23.42" transform="translate(658.57 979.2)"/><path class="cls-19" d="M173.75-493.77c-4.73-3.42-18.26-1.94-24.32-1.89a.5.5,0,0,0-.5.5v24.93a.5.5,0,0,0,.5.5l18.34.05c12.9,0,15.18-17.42,6-24.09" transform="translate(658.57 979.2)"/><path class="cls-19" d="M328-467.64a.32.32,0,0,0,.17.42l.12,0h22.8a.32.32,0,0,0,.31-.33.43.43,0,0,0,0-.11L340-494.33a.32.32,0,0,0-.43-.15.28.28,0,0,0-.15.15L328-467.64" transform="translate(658.57 979.2)"/><path class="cls-19" d="M716.75-493.76c-4.73-3.44-18.27-1.95-24.32-1.9a.5.5,0,0,0-.5.5v24.92a.51.51,0,0,0,.51.52h0q9,0,18.17.07c13,.14,15.41-17.38,6.14-24.11" transform="translate(658.57 979.2)"/><path class="cls-22" d="M-658.57-979.2v640h2110v-640Zm555.71,380.25q-10.8,67.22-55.75,118a229,229,0,0,1-28.65,27.39A222.14,222.14,0,0,1-222.82-430a210.43,210.43,0,0,1-24.75,11.5,175.62,175.62,0,0,1-22.5,7.5,226.93,226.93,0,0,1-74.78,8.6c-167.82-8.47-273.06-184.87-198.68-337.06A231,231,0,0,1-492.39-808,231.53,231.53,0,0,1-451.81-838l14.45-7.66a216.44,216.44,0,0,1,58-19.71l17-2.81a233.84,233.84,0,0,1,50.18-.72,231.58,231.58,0,0,1,89.54,27C-135.59-794.62-86.61-697.44-102.86-598.95ZM20.68-497.27l-19.49,30a1.62,1.62,0,0,0-.26.88v18.61a.63.63,0,0,1-.63.62H-1.07a.5.5,0,0,1-.5-.5v-18.51a1.7,1.7,0,0,0-.29-1l-19.65-30.18,0,0a.5.5,0,0,1,.2-.68c1.14-.61,2.1-.1,2.78.95Q-9.67-483.4-.78-469.68a.2.2,0,0,0,.09.09.34.34,0,0,0,.46-.09q9.06-13.67,18-27.44a2,2,0,0,1,2.74-.9l0,0A.52.52,0,0,1,20.68-497.27ZM50.51-447c-13.12,0-23.71-11.59-23.66-25.78s10.72-25.67,23.84-25.62h0c13.11.05,23.71,11.59,23.66,25.78S63.62-446.93,50.51-447Zm77.22-13c-5.21,15.64-27.27,17.64-36,4.24-6.51-10-4.28-30.35-4.26-42a.53.53,0,0,1,.53-.53h1.55a.65.65,0,0,1,.65.64q0,13.32.08,26.61c.07,13.8,7.23,23.33,22.18,21.19,11.38-1.62,14.66-12.28,14.72-22.23q.06-12.76,0-25.56a.65.65,0,0,1,.66-.65h1.31a.53.53,0,0,1,.53.53C129.69-486.13,131.36-470.86,127.73-459.95Zm53.91,12.66c-1.46.54-2.33.07-3.13-1.22Q172.8-457.7,167-466.78a.92.92,0,0,0-.77-.42H149.43a.5.5,0,0,0-.5.5v18.88a.63.63,0,0,1-.63.62h-1.49a.65.65,0,0,1-.64-.66q.22-20.86.29-41.71c0-1.85-.46-5.35-.05-8.1a.59.59,0,0,1,.58-.51q11,0,21.94,0,4.14,0,8.29,4.4c8.31,8.77,5.25,23.73-7.25,26.22l-.13.05a.36.36,0,0,0-.1.5l12.1,19.14s0,.05,0,.08A.39.39,0,0,1,181.64-447.29Zm9.54-137.27a.35.35,0,0,1-.35.35l-12.26,0a.36.36,0,0,1-.28-.13L3.3-804.56a.38.38,0,0,0-.26-.13.35.35,0,0,0-.36.34v219.8a.35.35,0,0,1-.35.35H-9.22a.35.35,0,0,1-.35-.35V-827.83a.35.35,0,0,1,.35-.35l9.34,0a.39.39,0,0,1,.28.13L178.31-604.23a.34.34,0,0,0,.25.13.36.36,0,0,0,.37-.34V-827.85a.35.35,0,0,1,.35-.35h11.55a.35.35,0,0,1,.35.35ZM256.8-447.19h-1.38a.52.52,0,0,1-.52-.52l0-24h0a.5.5,0,0,0-.5-.5h-33a.5.5,0,0,0-.5.5v24a.5.5,0,0,1-.5.5h-1.59a.63.63,0,0,1-.62-.63q.33-21.94.18-43.87c0-1.49-.48-3.94-.05-6a.61.61,0,0,1,.62-.5h1.34a.63.63,0,0,1,.62.63v22.37a.5.5,0,0,0,.5.5h32.88a.63.63,0,0,0,.62-.63v-22.33h0a.54.54,0,0,1,.54-.54h1.32a.61.61,0,0,1,.61.61l0,49.78A.62.62,0,0,1,256.8-447.19Zm51.38-.64a.63.63,0,0,1-.63.63H274.71a.38.38,0,0,1-.39-.39q.18-21.65.1-42.83a49,49,0,0,1,0-7.3.56.56,0,0,1,.55-.48h31.85a.63.63,0,0,1,.62.63v1.37a.5.5,0,0,1-.5.5h-29.5a.5.5,0,0,0-.5.5v20a.5.5,0,0,0,.5.5h25.63a.63.63,0,0,1,.62.63v1.37a.5.5,0,0,1-.5.5H277.43a.5.5,0,0,0-.5.5v21.5a.5.5,0,0,0,.5.5h30.25a.5.5,0,0,1,.5.5Zm54,.54c-1.37.57-2.16.08-2.71-1.25q-3.37-8.08-6.81-16.12a.9.9,0,0,0-.82-.55l-24.38,0a.83.83,0,0,0-.76.5l-7.26,17a.79.79,0,0,1-.73.48H317.3a.45.45,0,0,1-.2,0,.51.51,0,0,1-.27-.67l21.46-49.55a1.49,1.49,0,0,1,.78-.78,1.53,1.53,0,0,1,2,.79l21.38,49.52v0A.48.48,0,0,1,362.19-447.29ZM304.88-581.2c-47.9-2.14-54.36-47.34-54.42-84.89q-.08-48.35,0-96.74a.36.36,0,0,1,.36-.36h11a.58.58,0,0,1,.57.57q0,51.11.14,102.18c.06,30.8,7.52,66.93,46.07,68,33.92.92,63.17-23.33,74.24-54.41a19.1,19.1,0,0,0,1.06-6.43q0-54.68,0-109.36a.53.53,0,0,1,.53-.53h10.82a.64.64,0,0,1,.64.64q0,80.7,0,161.35,0,5.37,5.42,6.61a.75.75,0,0,1,.58.73v9.06a.59.59,0,0,1-.55.59c-13.59.91-16.28-7.65-16.46-19.21q-.18-11.79-.3-23.45a.34.34,0,0,0-.17-.29.32.32,0,0,0-.43.13C368-598.49,338-579.72,304.88-581.2Zm103.3,133.65a.35.35,0,0,1-.35.35H374.78a.35.35,0,0,1-.35-.35v-50.3a.35.35,0,0,1,.35-.35h1.8a.35.35,0,0,1,.35.35v48.05a.35.35,0,0,0,.35.35h30.55a.35.35,0,0,1,.35.35Zm38.25-48.75a.35.35,0,0,1-.35.35h-18.3a.35.35,0,0,0-.35.35v48.05a.35.35,0,0,1-.35.35h-1.8a.35.35,0,0,1-.35-.35V-495.6a.35.35,0,0,0-.35-.35H406a.35.35,0,0,1-.35-.35v-1.55a.35.35,0,0,1,.35-.35h40.05a.35.35,0,0,1,.35.35ZM497-447.19h-1.66a.43.43,0,0,1-.43-.43l.05-24.14h0a.43.43,0,0,0-.43-.43H461.36a.43.43,0,0,0-.43.43v24.2a.43.43,0,0,1-.46.4l-2-.12a.43.43,0,0,1-.4-.44l.19-49.94a.42.42,0,0,1,.39-.42l1.78-.15h0a.43.43,0,0,1,.43.43v22.68h0a.43.43,0,0,0,.43.43h33.15a.43.43,0,0,0,.43-.43l0-22.64h0a.43.43,0,0,1,.43-.43h1.57a.43.43,0,0,1,.43.43l.08,50.15A.43.43,0,0,1,497-447.19Zm29.27-143.87c-14.88,9.43-37.75,14.29-53.56,5.2-12.07-6.93-14.05-17.46-14-31.27q0-67.54,0-135h0a.52.52,0,0,0-.52-.52H433.68a.5.5,0,0,1-.5-.5v-9.5a.5.5,0,0,1,.5-.5h24.5a.5.5,0,0,0,.5-.5v-61.09a.4.4,0,0,1,.4-.4h11.1a.5.5,0,0,1,.5.5v61a.5.5,0,0,0,.5.5h41.34a.4.4,0,0,1,.4.4v9.6h0a.5.5,0,0,1-.5.49H471.21a.52.52,0,0,0-.53.52q0,65.61,0,131.19,0,10.57,1.51,14.94c7,20,35.72,14.58,49.48,5.2l.05,0a.48.48,0,0,1,.63.22l4.15,8.87A.58.58,0,0,1,526.26-591.06Zm28.57,133.83c-2.66,11.8-16,12.44-24.68,7.32a.55.55,0,0,1-.2-.73l.46-.88h0a.61.61,0,0,1,.84-.26c7.81,4.19,19.44,3.87,21.48-6.63,2.4-12.33,1.2-26.55,1.21-39.15h0a.64.64,0,0,1,.64-.64h1.31a.52.52,0,0,1,.52.52C556.47-484.71,557.69-469.89,554.83-457.23Zm14.36-127.48a.51.51,0,0,1-.51.51h-11a.5.5,0,0,1-.5-.5V-762.79a.4.4,0,0,1,.4-.4h10.61a.49.49,0,0,1,.49.5v43.46c0,.4.09.42.28.07,13.23-25.58,38.61-45.67,68.22-44a.53.53,0,0,1,.5.53v10.08a.51.51,0,0,1-.47.5c-32.13,1.75-57,21.54-66.92,51.66a22.57,22.57,0,0,0-1.09,7.18Q569.16-639,569.19-584.71ZM593.52-447h0c-13.11,0-23.7-11.59-23.65-25.78s10.71-25.67,23.83-25.62h0c13.11.05,23.7,11.59,23.65,25.78S606.63-446.93,593.52-447Zm79.15-22.72c0,6.34-2.95,14.64-8,18.61-8.49,6.61-22.18,5.47-28.93-3.25-7.69-9.93-5.33-31.65-5.23-43.34a.51.51,0,0,1,.51-.52h1.57a.64.64,0,0,1,.63.64q0,13.19,0,26.35a27.47,27.47,0,0,0,4.35,15.44c4.24,6.49,14.84,7.71,21.18,5.29,8.81-3.35,11.42-12.59,11.47-21.14s.05-17.36,0-26.05a.52.52,0,0,1,.52-.53h1.44a.52.52,0,0,1,.53.52Q672.7-483.69,672.67-469.7Zm10.51-115h0a.53.53,0,0,1-.53.53H671.71a.53.53,0,0,1-.53-.53V-762.67a.53.53,0,0,1,.53-.53h10.94a.53.53,0,0,1,.53.53Zm0-222h0a.52.52,0,0,1-.52.52h-11a.52.52,0,0,1-.52-.52v-28h0a.52.52,0,0,1,.52-.52h11a.52.52,0,0,1,.52.52Zm41.43,359.39a2,2,0,0,1-2.91-.88q-5.79-9.35-11.74-18.57a1,1,0,0,0-.78-.42H692.43a.5.5,0,0,0-.5.5v18.89h0a.63.63,0,0,1-.64.61l-1.5,0a.67.67,0,0,1-.66-.67l.17-49.57a.6.6,0,0,1,.59-.6c6.74-.16,20.38-1.6,26.26,1.25,12.43,6,11.54,27.57-3.25,29.17a.29.29,0,0,0-.13,0,.32.32,0,0,0-.11.45L724.79-448a.08.08,0,0,0,0,0A.46.46,0,0,1,724.61-447.33Zm56.82-.49a.63.63,0,0,1-.63.62h-1.57a1.06,1.06,0,0,1-.83-.4l-36.15-45.46a.21.21,0,0,0-.15-.07.18.18,0,0,0-.17.19v45.12a.63.63,0,0,1-.63.62h-1.37a.5.5,0,0,1-.5-.5v-49.46a1.2,1.2,0,0,1,.44-.93,1.22,1.22,0,0,1,1.71.18L778.14-452c.36.45.54.39.54-.19v-45.42a.63.63,0,0,1,.63-.63h1.62a.51.51,0,0,1,.5.5ZM796.9-683.19a.3.3,0,0,0-.43,0l-45.19,41.3a.29.29,0,0,0-.1.23v57.18h0a.31.31,0,0,1-.31.31H739.49a.31.31,0,0,1-.31-.31V-834.88h0a.31.31,0,0,1,.31-.31l11.38,0a.31.31,0,0,1,.31.31v177.69a.32.32,0,0,0,.08.21.3.3,0,0,0,.44,0L866.57-763.12a.3.3,0,0,1,.21-.08h13.73a.34.34,0,0,1,.23.1.32.32,0,0,1,0,.44L805.43-691.5a.3.3,0,0,0,0,.41L882.92-584.7a.35.35,0,0,1,.05.18.3.3,0,0,1-.3.31h-13a.3.3,0,0,1-.25-.13l-72.45-98.84Zm35.28,235.36a.63.63,0,0,1-.63.63H799a.6.6,0,0,1-.6-.6q0-22,0-43.77c0-1.38-.5-4.09,0-6.15a.61.61,0,0,1,.6-.48h31.86a.63.63,0,0,1,.62.63v1.37a.5.5,0,0,1-.5.5h-29.5a.5.5,0,0,0-.5.5v20a.5.5,0,0,0,.5.5h25.75a.5.5,0,0,1,.5.5v1.5a.5.5,0,0,1-.5.5H801.43a.5.5,0,0,0-.5.5v21.5a.5.5,0,0,0,.5.5h30.12a.63.63,0,0,1,.63.63Zm51.5-49.46-19.47,30a1.67,1.67,0,0,0-.28.94v18.58a.63.63,0,0,1-.63.62h-1.37a.5.5,0,0,1-.5-.5v-18.5a1.78,1.78,0,0,0-.29-1l-19.65-30.18,0,0a.5.5,0,0,1,.2-.68c1.14-.61,2.1-.1,2.79.95q8.89,13.69,17.76,27.42a.2.2,0,0,0,.09.09.33.33,0,0,0,.46-.08q9.06-13.68,18-27.42c.69-1.06,1.58-1.55,2.71-.91l0,0A.51.51,0,0,1,883.68-497.29Z" transform="translate(658.57 979.2)"/><path class="cls-23" d="M-312.11-868.94a13.55,13.55,0,0,0,1.54,6.74c1.28,2.8,3.22,5.12,4.09,7.17,1,2.27,1.28,4.36,2.83,6.45a14.28,14.28,0,0,1,2.83,8.84,203.43,203.43,0,0,0-50.75-2,96.87,96.87,0,0,0-4.22-12q-.34-.79-3.45-6.23a27.09,27.09,0,0,1-3.05-8.26A233.84,233.84,0,0,1-312.11-868.94Z" transform="translate(658.57 979.2)"/><path class="cls-24" d="M-312.11-868.94a231.58,231.58,0,0,1,89.54,27,.92.92,0,0,0,.16.88.53.53,0,0,1,0,.68c-2,2.2,1.06,7.73,2.59,9.88a26.92,26.92,0,0,1,4.66,11.69.08.08,0,0,0,.09.08l.35,0a.92.92,0,0,1,.71.41c1.79,2.73,9.59,15.4,8.72,18.06a5.18,5.18,0,0,1-1,1.8,204.75,204.75,0,0,0-94.5-41.33,14.28,14.28,0,0,0-2.83-8.84c-1.55-2.09-1.87-4.18-2.83-6.45-.87-2.05-2.81-4.37-4.09-7.17A13.55,13.55,0,0,1-312.11-868.94Z" transform="translate(658.57 979.2)"/><path class="cls-25" d="M-362.29-868.22a27.09,27.09,0,0,0,3.05,8.26q3.11,5.43,3.45,6.23a96.87,96.87,0,0,1,4.22,12l-18.5,2.46a31.17,31.17,0,0,0-3.16-11c-.19-.37.1-.76-.59-.82a.55.55,0,0,1-.49-.49,6.42,6.42,0,0,0-1.23-3.46,14.91,14.91,0,0,1-3.78-10.43Z" transform="translate(658.57 979.2)"/><path class="cls-26" d="M-379.32-865.41A14.91,14.91,0,0,0-375.54-855a6.42,6.42,0,0,1,1.23,3.46.55.55,0,0,0,.49.49c.69.06.4.45.59.82a31.17,31.17,0,0,1,3.16,11,212.21,212.21,0,0,0-56,18.49,9.79,9.79,0,0,1-1.74-4.2,16.51,16.51,0,0,0-3.92-7.59c-.86-1-1-3.3-2-4.75a23,23,0,0,1-3.61-8.42A216.44,216.44,0,0,1-379.32-865.41Z" transform="translate(658.57 979.2)"/><path class="cls-27" d="M-437.36-845.7a23,23,0,0,0,3.61,8.42c1,1.45,1.16,3.76,2,4.75a16.51,16.51,0,0,1,3.92,7.59,9.79,9.79,0,0,0,1.74,4.2L-439-813.62a9.32,9.32,0,0,1-4.4-4.62.31.31,0,0,1,.16-.42.32.32,0,0,1,.14,0h.35a.38.38,0,0,0,.37-.37.5.5,0,0,0,0-.12,39.22,39.22,0,0,0-4.61-9.14c-1.62-2.37-2-4.93-3.69-7.34a8.16,8.16,0,0,1-1.12-2.38Z" transform="translate(658.57 979.2)"/><path class="cls-22" d="M-300.82-839.74a204.75,204.75,0,0,1,94.5,41.33A206.56,206.56,0,0,1-127.53-644.7q2.46,79-46.83,139.75a209,209,0,0,1-25.19,25.72,209.88,209.88,0,0,1-35,24.24,251,251,0,0,1-23.79,11.29q-12,4.41-24.19,7.68a210.29,210.29,0,0,1-73.27,5.36c-137-15.63-219.06-154.18-169.71-282a208.55,208.55,0,0,1,46.51-70,214.37,214.37,0,0,1,40-30.94l12.92-7.12a212.21,212.21,0,0,1,56-18.49l18.5-2.46A203.43,203.43,0,0,1-300.82-839.74Zm-86.5,21a125.13,125.13,0,0,0-17,6.29,174.33,174.33,0,0,0-30.69,17A220.62,220.62,0,0,0-455.57-780c-6.86,5.77-4.33,11,1.14,16.51q33.48,33.56,67.07,67Q-369-678-350.6-659.6c5,5,10.3,9.27,16.2,3.12,2.23-2.32,2.83-6.26,3.58-9.43l8.46-31.79,18.75-69.5q5.37-19.66,10.61-39.34,1.54-5.82,1-8.45-1.06-5.13-7.15-6.4a199.16,199.16,0,0,0-34.18-3.77A163.07,163.07,0,0,0-387.32-818.74Zm102.46,19-11.42,42.5q-12.9,47.84-25.62,95.71c-1.17,4.4-2.21,7.15-.33,10.42,3,5.24,7.51,4.93,13.07,3.46q29.94-7.93,59.84-16l26.75-7.08,37.5-10.17,18.38-4.77c13.7-3.58,12.6-8.45,8-20.43-15.88-41.64-42.67-75.06-83.16-95.09a196.8,196.8,0,0,0-25-11.17C-280.44-817.34-282.14-811.5-284.86-799.7Zm-223.46,89.21c-16.12,33.56-17.93,72.29-10.79,108.37,1.31,6.64,5.47,9.14,12.18,7.41q22.86-5.91,45.57-12.22l73-19.56q14.34-3.64,28.61-7.57c5.53-1.52,10.14-5.53,7.92-11.54q-1-2.67-6.16-7.86-37.64-37.68-75.37-75.28-15-15.24-30.24-30.22c-5.08-5-10.16-3.37-14.53,1.68A200.52,200.52,0,0,0-508.32-710.49Zm288.5,49-18.75,5-44,11.78q-12.92,3.4-25.79,7c-7.19,2-10.9,9.43-5.24,15.11q37.1,37.15,74.28,74.28,17.49,17.63,35.17,35.1c5.46,5.4,10.44,3.65,15.11-1.79a191.55,191.55,0,0,0,13.95-18.39,192.86,192.86,0,0,0,11.75-19.25c19.87-36.81,22.67-77,15.05-117.25-1.57-8.32-7.09-8.85-14.4-6.92Q-191.3-669.31-219.82-661.49ZM-377.36-619.2l-57.21,15.29-30.54,8.21q-19.5,5-38.85,10.34c-7.2,2-9.6,6.15-7,13.58,11.32,32.54,30.81,63.66,58.63,84.35a201.13,201.13,0,0,0,54,28.48q6.78,3,10.81-.89c3.79-3.62,5.51-14.64,6.94-20.36l26.33-98.25q4.93-17.67,9.59-35.42c1.75-6.69-3.33-13-10.38-11.3Q-366.27-622.43-377.36-619.2ZM-337-604.7l-14.75,54.5q-11.79,44.07-23.53,88.15c-1.74,6.54,2,10.35,8.31,11.55,21.3,4,46.28,5.7,67.68,1.51a140.93,140.93,0,0,0,37.25-11,180.2,180.2,0,0,0,27.29-15,218.2,218.2,0,0,0,23-17.19c6.71-5.7,4.27-10.87-1.14-16.29q-37.89-38-75.89-75.81-14.31-14.43-28.67-28.77c-4.58-4.57-9.61-8.22-15.13-3C-335.43-613.4-336.14-608.5-337-604.7Z" transform="translate(658.57 979.2)"/><path class="cls-28" d="M-222.57-841.91c87,47.29,136,144.47,119.71,243a1.13,1.13,0,0,1-1.78-.28,1,1,0,0,1-.19-.88,2.47,2.47,0,0,0-.54-2.36,1.23,1.23,0,0,1-.32-.69c-.21-1.85-.45-3.68-.72-5.51-.51-3.48-3.65-5.9-4.48-8.75-2.5-8.67-8.43-15.51-11.37-24.83a1.61,1.61,0,0,0-.61-.82,5.56,5.56,0,0,1-2.44-3.52.64.64,0,0,0-.74-.48c-1.11.22-1.6,1-1.48,2.37a206.56,206.56,0,0,0-78.79-153.71,5.18,5.18,0,0,0,1-1.8c.87-2.66-6.93-15.33-8.72-18.06a.92.92,0,0,0-.71-.41l-.35,0a.08.08,0,0,1-.09-.08,26.92,26.92,0,0,0-4.66-11.69c-1.53-2.15-4.64-7.68-2.59-9.88a.53.53,0,0,0,0-.68A.92.92,0,0,1-222.57-841.91Z" transform="translate(658.57 979.2)"/><path class="cls-29" d="M-451.81-838a8.16,8.16,0,0,0,1.12,2.38c1.69,2.41,2.07,5,3.69,7.34a39.22,39.22,0,0,1,4.61,9.14.38.38,0,0,1-.23.47l-.12,0h-.35a.32.32,0,0,0-.33.31.32.32,0,0,0,0,.14,9.32,9.32,0,0,0,4.4,4.62,214.37,214.37,0,0,0-40,30.94A176.85,176.85,0,0,0-492.39-808,231.53,231.53,0,0,1-451.81-838Z" transform="translate(658.57 979.2)"/><rect x="1329.75" y="144" width="12" height="29" rx="0.52"/><path d="M751.7-657,866.57-763.12a.3.3,0,0,1,.21-.08h13.73a.31.31,0,0,1,.31.31.33.33,0,0,1-.1.23L805.43-691.5a.3.3,0,0,0,0,.41L882.92-584.7a.31.31,0,0,1-.08.43.27.27,0,0,1-.17.06h-13a.3.3,0,0,1-.25-.13l-72.45-98.84a.31.31,0,0,0-.44-.06h0l-45.19,41.3a.29.29,0,0,0-.1.23v57.18a.31.31,0,0,1-.31.31H739.49a.31.31,0,0,1-.31-.31h0V-834.88a.31.31,0,0,1,.31-.31h0l11.38,0a.31.31,0,0,1,.31.31h0v177.69a.3.3,0,0,0,.3.31A.35.35,0,0,0,751.7-657Z" transform="translate(658.57 979.2)"/><path d="M2.68-804.35v219.8a.35.35,0,0,1-.35.35H-9.22a.35.35,0,0,1-.35-.35V-827.83a.35.35,0,0,1,.35-.35l9.34,0a.39.39,0,0,1,.28.13L178.31-604.23a.35.35,0,0,0,.49.05.38.38,0,0,0,.13-.26V-827.85a.35.35,0,0,1,.35-.35h11.55a.35.35,0,0,1,.35.35v243.29a.35.35,0,0,1-.35.35l-12.26,0a.36.36,0,0,1-.28-.13L3.3-804.56a.36.36,0,0,0-.5-.05A.37.37,0,0,0,2.68-804.35Z" transform="translate(658.57 979.2)"/><path class="cls-25" d="M-333.32-825.16a1.46,1.46,0,0,0,1.26.92c.26,0,.27.1,0,.19l-.37.13a.45.45,0,0,0-.27.59h0c.95,2.32,1.51,4.58,2.61,6.76q11.65,23.23,23.51,46.35a7,7,0,0,0,2.94,3l-18.75,69.5c-5.69-7.6-9.58-17.82-13.23-24.49-1.25-2.29-1.76-4.6-2.7-6.37q-15.27-28.76-29.66-57.93a.14.14,0,0,1,.07-.19h0l.26-.09a.18.18,0,0,0,.12-.23s0,0,0,0a64.89,64.89,0,0,1-6.64-12.16q-.06-.12-.09,0l-.09.32c-.07.23-.15.23-.23,0q-2.85-7.93-6-11.79a18.25,18.25,0,0,1-3.67-6.36,1.46,1.46,0,0,0-.55-.78,5.21,5.21,0,0,0-2.5-.92A163.07,163.07,0,0,1-333.32-825.16Z" transform="translate(658.57 979.2)"/><path class="cls-23" d="M-333.32-825.16a199.16,199.16,0,0,1,34.18,3.77q6.09,1.27,7.15,6.4.54,2.63-1,8.45-5.25,19.68-10.61,39.34a7,7,0,0,1-2.94-3q-11.85-23.12-23.51-46.35c-1.1-2.18-1.66-4.44-2.61-6.76a.44.44,0,0,1,.24-.59h0l.37-.13c.25-.09.24-.15,0-.19A1.46,1.46,0,0,1-333.32-825.16Z" transform="translate(658.57 979.2)"/><path d="M471.18-763.2h41.34a.4.4,0,0,1,.4.4h0v9.6a.51.51,0,0,1-.49.5H471.21a.52.52,0,0,0-.53.52h0q0,65.61,0,131.19,0,10.57,1.51,14.94c7,20,35.72,14.58,49.48,5.2a.47.47,0,0,1,.65.14l0,.05,4.15,8.87a.58.58,0,0,1-.21.73c-14.88,9.43-37.75,14.29-53.56,5.2-12.07-6.93-14.05-17.46-14-31.27q0-67.54,0-135a.52.52,0,0,0-.52-.52H433.68a.5.5,0,0,1-.5-.5v-9.5a.5.5,0,0,1,.5-.5h24.5a.5.5,0,0,0,.5-.5v-61.09a.4.4,0,0,1,.4-.4h11.1a.5.5,0,0,1,.5.5v61A.5.5,0,0,0,471.18-763.2Z" transform="translate(658.57 979.2)"/><path class="cls-26" d="M-387.32-818.74a5.21,5.21,0,0,1,2.5.92,1.46,1.46,0,0,1,.55.78,18.25,18.25,0,0,0,3.67,6.36q3.19,3.85,6,11.79c.08.23.16.23.23,0l.09-.32q0-.12.09,0A64.89,64.89,0,0,0-367.51-787a.19.19,0,0,1-.05.25l-.05,0-.26.09a.15.15,0,0,0-.09.18h0q14.4,29.18,29.66,57.93c.94,1.77,1.45,4.08,2.7,6.37,3.65,6.67,7.54,16.89,13.23,24.49l-8.46,31.79a.51.51,0,0,1-.27-.27.21.21,0,0,0-.26-.11l0,0-.25.24a.28.28,0,0,1-.4,0l0-.05c-1.94-3.18-2.09-6.37-4.22-9.44-2.39-3.43-4-9.08-6-13a1.67,1.67,0,0,1-.18-.93.87.87,0,0,0-.44-1,1.47,1.47,0,0,1-.66-.62q-3.15-5.9-6.24-11.81c-.66-1.27-2-2.6-2.59-4.11-1.42-3.94-3.38-7.16-5.18-10.89-1.4-2.91-2.7-5.45-3.88-7.6-6.88-12.41-13.08-25.25-19.48-37.92Q-391.1-783.52-401-803.86c-1.35-2.8-3.94-4.4-3.39-8.59A125.13,125.13,0,0,1-387.32-818.74Z" transform="translate(658.57 979.2)"/><path class="cls-24" d="M-241.82-801.2c-1.18,2.45-.81,4.53,1.09,6.23a2.21,2.21,0,0,1,.55.8,79.26,79.26,0,0,0,4.71,10.37c.84,1.56,1.53,3.68,2.6,5.3,3.82,5.81,6.11,12.86,8.36,16.49a35.92,35.92,0,0,1,3.39,6.52.21.21,0,0,1-.13.27h0l-.26.08c-.51.17-.38.29.39.38a1,1,0,0,1,.85.78c2.52,7.1,7.49,15.51,10,20.62q2.58,5.24,5.3,10.39a.77.77,0,0,0,.62.42c.75.08.39.47.51.82,3.79,10.47,9.73,18.58,13.69,27.63,1.34,3.07,3.32,6.39,4.49,9.86a.8.8,0,0,0,.78.54l.46,0c.62,0,.65.11.1.39l-.95.47a.49.49,0,0,0-.22.67.47.47,0,0,0,.06.09,1.34,1.34,0,0,1,.34,1.19l-37.5,10.17a.61.61,0,0,1,.14-.4,2.26,2.26,0,0,0,.09-.55c0-.15,0-.22-.11-.2a.43.43,0,0,1-.52-.28,61.78,61.78,0,0,0-5.1-11.36c-2.26-3.73-3.67-8.26-5.41-11.57-4.25-8.1-9.2-16.23-12.83-24.57a54.64,54.64,0,0,0-2.69-5.19c-2.46-4.22-4.48-9.38-6.56-13.1q-4.47-7.95-8.14-16.31a1.23,1.23,0,0,1,0-.94l.73-1.94a1.26,1.26,0,0,0-.05-1c-1-2-1.93-4.07-2.79-6.16-1-2.44-3.12-4.24-3.74-7.15A15.2,15.2,0,0,0-272-776.9c-1.65-2.77-1.9-5.91-4.1-8.73-1.27-1.63-1.63-3.29-2.45-5.09,0-.11-.09-.1-.12,0l-.11.31c-.14.43-.28.43-.42,0l-2.6-7.56a1.16,1.16,0,0,0-.62-.68l-2.39-1.07c2.72-11.8,4.42-17.64,18-12.67A196.8,196.8,0,0,1-241.82-801.2Z" transform="translate(658.57 979.2)"/><path class="cls-27" d="M-404.36-812.45c-.55,4.19,2,5.79,3.39,8.59q9.87,20.34,20.05,40.51c6.4,12.67,12.6,25.51,19.48,37.92,1.18,2.15,2.48,4.69,3.88,7.6,1.8,3.73,3.76,7,5.18,10.89.55,1.51,1.93,2.84,2.59,4.11q3.09,5.93,6.24,11.81a1.47,1.47,0,0,0,.66.62.87.87,0,0,1,.44,1,1.67,1.67,0,0,0,.18.93c1.94,3.92,3.57,9.57,6,13,2.13,3.07,2.28,6.26,4.22,9.44a.28.28,0,0,0,.39.1l.05,0,.25-.24a.19.19,0,0,1,.27,0l0,.06a.51.51,0,0,0,.27.27c-.75,3.17-1.35,7.11-3.58,9.43-5.9,6.15-11.24,1.83-16.2-3.12Q-369-678-387.36-696.45a29.07,29.07,0,0,0-3.43-11.27c-3.6-6.8-8.73-18.5-14.29-28.22-3-5.21-5.11-10.83-8.11-15.91-3.5-5.94-4.9-10.74-8.68-16.79q-4.11-6.55-11-22.67c-.55-1.28-1.8-2.4-2.16-4.19A174.33,174.33,0,0,1-404.36-812.45Z" transform="translate(658.57 979.2)"/><path class="cls-30" d="M-492.39-808A176.85,176.85,0,0,1-479-782.68a208.55,208.55,0,0,0-46.51,70c-.56-.21-.81-.53-.75-1a.51.51,0,0,0-.38-.57l-.93-.24a1.63,1.63,0,0,1-.77-.45,26.5,26.5,0,0,1-4.5-6.27c-.06-.11-.11-.1-.13,0l-.07.24c-.09.33-.16.33-.22,0l-.66-3.63a2.14,2.14,0,0,0-.48-1,8.06,8.06,0,0,1-2.13-5.74,2,2,0,0,0-.21-.9c-1.25-2.35-2.37-5.44-4.68-6.9a.76.76,0,0,0-.81,0c-.44.28-.87.17-1.28-.33A231,231,0,0,1-492.39-808Z" transform="translate(658.57 979.2)"/><path class="cls-24" d="M-241.82-801.2c40.49,20,67.28,53.45,83.16,95.09,4.57,12,5.67,16.85-8,20.43l-18.38,4.77a1.34,1.34,0,0,0-.34-1.19.49.49,0,0,1,.07-.7.47.47,0,0,1,.09-.06l.95-.47c.55-.28.52-.41-.1-.39l-.46,0a.8.8,0,0,1-.78-.54c-1.17-3.47-3.15-6.79-4.49-9.86-4-9-9.9-17.16-13.69-27.63-.12-.35.24-.74-.51-.82a.77.77,0,0,1-.62-.42q-2.73-5.16-5.3-10.39c-2.53-5.11-7.5-13.52-10-20.62a1,1,0,0,0-.85-.78c-.77-.09-.9-.21-.39-.38l.26-.08a.21.21,0,0,0,.13-.27h0a35.92,35.92,0,0,0-3.39-6.52c-2.25-3.63-4.54-10.68-8.36-16.49-1.07-1.62-1.76-3.74-2.6-5.3a79.26,79.26,0,0,1-4.71-10.37,2.21,2.21,0,0,0-.55-.8C-242.63-796.67-243-798.75-241.82-801.2Z" transform="translate(658.57 979.2)"/><path class="cls-23" d="M-284.86-799.7l2.39,1.07a1.16,1.16,0,0,1,.62.68l2.6,7.56c.14.42.28.42.42,0l.11-.31c0-.11.07-.12.12,0,.82,1.8,1.18,3.46,2.45,5.09,2.2,2.82,2.45,6,4.1,8.73a15.2,15.2,0,0,1,2.48,5.45c.62,2.91,2.73,4.71,3.74,7.15.86,2.09,1.79,4.15,2.79,6.16a1.26,1.26,0,0,1,.05,1l-.73,1.94a1.23,1.23,0,0,0,0,.94q3.68,8.35,8.14,16.31c2.08,3.72,4.1,8.88,6.56,13.1a54.64,54.64,0,0,1,2.69,5.19c3.63,8.34,8.58,16.47,12.83,24.57,1.74,3.31,3.15,7.84,5.41,11.57a61.78,61.78,0,0,1,5.1,11.36.43.43,0,0,0,.52.28c.09,0,.13,0,.11.2a2.26,2.26,0,0,1-.09.55.61.61,0,0,0-.14.4l-26.75,7.08A44.69,44.69,0,0,0-254-676.19C-258.83-685-263.28-694-268-702.83c-2.95-5.46-7.88-15.73-12.72-23.19a2.9,2.9,0,0,1-.05-2.67,1.38,1.38,0,0,0,0-1l-2-4.57a1.59,1.59,0,0,0-.7-.75,7.38,7.38,0,0,1-4-4.79c-1.31-4.67-4.23-15.23-8.75-17.44Z" transform="translate(658.57 979.2)"/><path class="cls-29" d="M-435-795.5c.36,1.79,1.61,2.91,2.16,4.19q6.92,16.11,11,22.67c3.78,6,5.18,10.85,8.68,16.79,3,5.08,5.13,10.7,8.11,15.91,5.56,9.72,10.69,21.42,14.29,28.22a29.07,29.07,0,0,1,3.43,11.27q-33.6-33.43-67.07-67c-5.47-5.48-8-10.74-1.14-16.51A220.62,220.62,0,0,1-435-795.5Z" transform="translate(658.57 979.2)"/><path d="M384.62-626.88a.33.33,0,0,0-.32-.33.32.32,0,0,0-.28.17c-16,28.55-46,47.32-79.14,45.84-47.9-2.14-54.36-47.34-54.42-84.89q-.08-48.35,0-96.74a.36.36,0,0,1,.36-.36h11a.58.58,0,0,1,.58.56h0q0,51.11.14,102.18c.06,30.8,7.52,66.93,46.07,68,33.92.92,63.17-23.33,74.24-54.41a19.1,19.1,0,0,0,1.06-6.43q0-54.68,0-109.36a.53.53,0,0,1,.53-.53h10.82a.64.64,0,0,1,.64.64h0q0,80.7,0,161.35,0,5.37,5.42,6.61a.75.75,0,0,1,.58.73v9.06a.59.59,0,0,1-.55.59c-13.59.91-16.28-7.65-16.46-19.21Q384.74-615.22,384.62-626.88Z" transform="translate(658.57 979.2)"/><path d="M569-719.17c13.23-25.58,38.61-45.67,68.22-44a.53.53,0,0,1,.5.53v10.08a.51.51,0,0,1-.47.5c-32.13,1.75-57,21.54-66.92,51.66a22.57,22.57,0,0,0-1.09,7.18q0,54.26,0,108.5a.51.51,0,0,1-.51.51h-11a.5.5,0,0,1-.5-.5V-762.79a.4.4,0,0,1,.4-.4h10.6a.49.49,0,0,1,.5.49h0v43.46C568.68-718.84,568.77-718.82,569-719.17Z" transform="translate(658.57 979.2)"/><rect x="1329.75" y="216" width="12" height="179" rx="0.53"/><path class="cls-30" d="M-433.32-728.74l-.49,0a.26.26,0,0,0-.24.28.32.32,0,0,0,0,.09l.14.31a.09.09,0,0,1,0,.12h0l-.14,0s0,.14,0,.32h0l.39,4.68a1.88,1.88,0,0,0,.29.9,118.43,118.43,0,0,1,6.63,12.72q1.86,4.14,6.65,13.66c4,7.9,8.83,18.88,13.88,28.05a3.18,3.18,0,0,1,.24,1.28,1.73,1.73,0,0,0,.27.93c2.29,3.87,3.8,8.38,5.77,12.07q2.14,4.05,4,8.26c2.18,5.1,5.76,11.09,7.44,17.28a.24.24,0,0,1-.08.24l-.23.18c-.16.13-.14.22.07.25a.55.55,0,0,1,.5.54l-73,19.56q2.42-4.14,7.54-3.06a.71.71,0,0,0,.68-.24,2.9,2.9,0,0,0,.58-2.95.65.65,0,0,1,.19-.71l1-.89a.42.42,0,0,0,.05-.58.41.41,0,0,0-.13-.1c-1.63-.84-1.31-8.38-1.25-10.23a.49.49,0,0,0-.47-.5h0l-6.87,0a.51.51,0,0,1-.51-.51h0l-.06-14.63a.9.9,0,0,0-.68-.87,12.33,12.33,0,0,0-6.68.08.8.8,0,0,0-.58.77l0,9.93a.75.75,0,0,1-.74.75.76.76,0,0,1-.33-.08c-1.27-.61-1.5-2-1.33-3.37.31-2.5-.32-8.12,1.93-9.33a1,1,0,0,0,.49-.82l-.07-13.22a.6.6,0,0,0-.58-.6l-5.81-.23a1.4,1.4,0,0,0-1.45,1.34v0l-.14,10a.59.59,0,0,1-.6.59.57.57,0,0,1-.33-.11c-2.38-1.66-.93-8.5-1-11.35a.72.72,0,0,1,.44-.69c2.45-1.07,1.55-11.57,1.52-14.2a1.32,1.32,0,0,0-1-1.26,13,13,0,0,0-6.61-.07.59.59,0,0,0-.45.58l.09,10.51a.67.67,0,0,1-.65.67.63.63,0,0,1-.53-.25q-1.86-2.31-1.06-4a2.11,2.11,0,0,0,.21-.93v-6.88a.42.42,0,0,1,.43-.43h.06c2.24.3,1.55-4.4,1.48-6.72a.64.64,0,0,0-.64-.62l-6.6,0a.66.66,0,0,0-.66.6l-.22,2.37a.48.48,0,0,1-.53.43h-.07c-2.81-.75-1.16-8.76-1.13-11.1a.55.55,0,0,1,.56-.54h.54a.51.51,0,0,0,.5-.47l.34-6.35a.89.89,0,0,0-.83-.93h-6.17a.77.77,0,0,0-.76.6l-.47,2a.88.88,0,0,1-.32.48l-.21.14a.62.62,0,0,1-.81-.08c-1.2-1.29-.44-9.37-.49-11.53a1.82,1.82,0,0,0-.3-.91l-1.47-2.14a.57.57,0,0,0-.68-.2,2.87,2.87,0,0,1-3.3-.65,200.52,200.52,0,0,1,30.23-46.79c4.37-5.05,9.45-6.67,14.53-1.68Q-448.32-744-433.32-728.74Z" transform="translate(658.57 979.2)"/><path class="cls-25" d="M-296.28-757.2c4.52,2.21,7.44,12.77,8.75,17.44a7.38,7.38,0,0,0,4,4.79,1.59,1.59,0,0,1,.7.75l2,4.57a1.38,1.38,0,0,1,0,1,2.9,2.9,0,0,0,.05,2.67c4.84,7.46,9.77,17.73,12.72,23.19,4.76,8.85,9.21,17.85,14.07,26.64a44.69,44.69,0,0,1,4.65,12.53q-29.9,8.11-59.84,16c-5.56,1.47-10.06,1.78-13.07-3.46-1.88-3.27-.84-6,.33-10.42Q-309.18-709.37-296.28-757.2Z" transform="translate(658.57 979.2)"/><path class="cls-31" d="M-543.53-739.45c.41.5.84.61,1.28.33a.76.76,0,0,1,.81,0c2.31,1.46,3.43,4.55,4.68,6.9a2,2,0,0,1,.21.9,8.06,8.06,0,0,0,2.13,5.74,2.14,2.14,0,0,1,.48,1l.66,3.63c.06.33.13.33.22,0l.07-.24c0-.12.07-.13.13,0a26.5,26.5,0,0,0,4.5,6.27,1.63,1.63,0,0,0,.77.45l.93.24a.51.51,0,0,1,.38.57c-.06.45.19.77.75,1-49.35,127.86,32.71,266.41,169.71,282-1.88.94-.71,9.78-.66,12a.54.54,0,0,0,.54.53l6,.11a1.26,1.26,0,0,1,1.24,1.26l.05,7.7a1.09,1.09,0,0,0,.37.83,10.86,10.86,0,0,1,3.41,5.89C-512.67-410.86-617.91-587.26-543.53-739.45Z" transform="translate(658.57 979.2)"/><path class="cls-29" d="M-433.32-728.74q37.74,37.61,75.37,75.28,5.18,5.19,6.16,7.86c2.22,6-2.39,10-7.92,11.54q-14.28,3.91-28.61,7.57a.55.55,0,0,0-.5-.54c-.21,0-.23-.12-.07-.25l.23-.18a.24.24,0,0,0,.08-.24c-1.68-6.19-5.26-12.18-7.44-17.28q-1.8-4.21-4-8.26c-2-3.69-3.48-8.2-5.77-12.07a1.73,1.73,0,0,1-.27-.93,3.18,3.18,0,0,0-.24-1.28c-5.05-9.17-9.91-20.15-13.88-28.05q-4.78-9.52-6.65-13.66a118.43,118.43,0,0,0-6.63-12.72,1.88,1.88,0,0,1-.29-.9l-.39-4.68c0-.18,0-.33,0-.33h0l.14,0a.09.09,0,0,0,.05-.11h0l-.14-.31a.27.27,0,0,1,.12-.35l.09,0Z" transform="translate(658.57 979.2)"/><path class="cls-31" d="M-508.32-710.49a2.87,2.87,0,0,0,3.3.65.57.57,0,0,1,.68.2l1.47,2.14a1.82,1.82,0,0,1,.3.91c.05,2.16-.71,10.24.49,11.53a.62.62,0,0,0,.81.08l.21-.14a.88.88,0,0,0,.32-.48l.47-2a.77.77,0,0,1,.76-.6h6.12a.88.88,0,0,1,.88.88v.05l-.34,6.35a.51.51,0,0,1-.5.47h-.54a.55.55,0,0,0-.56.54c0,2.34-1.68,10.35,1.13,11.1a.47.47,0,0,0,.58-.34l0-.08.22-2.37a.66.66,0,0,1,.66-.6l6.6,0a.64.64,0,0,1,.64.62c.07,2.32.76,7-1.48,6.72a.44.44,0,0,0-.49.38v6.93a2.11,2.11,0,0,1-.21.93q-.8,1.7,1.06,4a.64.64,0,0,0,.92.11.64.64,0,0,0,.26-.53l-.09-10.51a.59.59,0,0,1,.45-.58,13,13,0,0,1,6.61.07,1.32,1.32,0,0,1,1,1.26c0,2.63.93,13.13-1.52,14.2a.72.72,0,0,0-.44.69c.06,2.85-1.39,9.69,1,11.35a.59.59,0,0,0,.82-.14.6.6,0,0,0,.11-.34l.14-10a1.4,1.4,0,0,1,1.41-1.38h0l5.81.23a.6.6,0,0,1,.58.6l.07,13.22a1,1,0,0,1-.49.82c-2.25,1.21-1.62,6.83-1.93,9.33-.17,1.4.06,2.76,1.33,3.37a.74.74,0,0,0,1-.33.81.81,0,0,0,.08-.34l0-9.93a.8.8,0,0,1,.58-.77,12.33,12.33,0,0,1,6.68-.08.9.9,0,0,1,.68.87l.06,14.63a.51.51,0,0,0,.51.51h0l6.87,0a.49.49,0,0,1,.48.49h0c-.06,1.85-.38,9.39,1.25,10.23a.41.41,0,0,1,.18.55.64.64,0,0,1-.1.13l-1,.89a.65.65,0,0,0-.19.71,2.9,2.9,0,0,1-.58,2.95.71.71,0,0,1-.68.24q-5.13-1.08-7.54,3.06-22.71,6.31-45.57,12.22c-6.71,1.73-10.87-.77-12.18-7.41C-526.25-638.2-524.44-676.93-508.32-710.49Z" transform="translate(658.57 979.2)"/><path class="cls-24" d="M-163.36-552.7a6.36,6.36,0,0,1-3.35-6,1.48,1.48,0,0,0-.3-.9,16.58,16.58,0,0,1-1.93-3.17c-1.4-3-3.54-4.87-4.77-7.89a1.23,1.23,0,0,1,0-.94,1.74,1.74,0,0,0-.8-2.34,1.73,1.73,0,0,1-.68-.74c-.05-.1-7.6-14.89-7.94-15a.56.56,0,0,1-.43-.56v-3.31a.38.38,0,0,0-.37-.37h-.29a.66.66,0,0,1-.63-.45,47.43,47.43,0,0,0-2.06-4.47c-3.89-7.67-7.69-15.14-11.53-23.07-2.45-5.08-5.66-9.68-8-14.8a32.55,32.55,0,0,0-2.39-4.22,159.65,159.65,0,0,1-10.67-19.67.13.13,0,0,1,0-.19l.26-.17a.24.24,0,0,0,.07-.32.23.23,0,0,0-.07-.07,1,1,0,0,0-.65-.11q28.51-7.82,57.11-15.38c7.31-1.93,12.83-1.4,14.4,6.92C-140.69-629.68-143.49-589.51-163.36-552.7Z" transform="translate(658.57 979.2)"/><path class="cls-23" d="M-219.82-661.49a1,1,0,0,1,.65.11.24.24,0,0,1,.07.32l-.07.07-.26.17a.13.13,0,0,0,0,.19A159.65,159.65,0,0,0-208.81-641a32.55,32.55,0,0,1,2.39,4.22c2.31,5.12,5.52,9.72,8,14.8,3.84,7.93,7.64,15.4,11.53,23.07a47.43,47.43,0,0,1,2.06,4.47.66.66,0,0,0,.63.45h.29a.38.38,0,0,1,.37.37v3.31a.56.56,0,0,0,.43.56c.34.09,7.89,14.88,7.94,15a1.73,1.73,0,0,0,.68.74,1.74,1.74,0,0,1,.8,2.34,1.23,1.23,0,0,0,0,.94c1.23,3,3.37,4.93,4.77,7.89a16.58,16.58,0,0,0,1.93,3.17,1.48,1.48,0,0,1,.3.9,6.36,6.36,0,0,0,3.35,6,192.86,192.86,0,0,1-11.75,19.25,6.15,6.15,0,0,1-3.59-5.83,1.84,1.84,0,0,0-.28-.92c-3.67-5.7-5.49-12-8.92-17.66a93.86,93.86,0,0,1-7-13.93c-1-2.57-3.22-4.27-4.28-7.16a59.17,59.17,0,0,0-6.57-12.75,20.72,20.72,0,0,1-2.45-4.89,40.37,40.37,0,0,0-6.07-11.16c-.3-.39-.48-.34-.52.15l-.06.7c-.13,1.35-.23,1.34-.29,0-.21-4.34-2.76-8.35-4-11.19-1.38-3.27-3.58-6.1-4.87-9.15s-2.7-6.3-4.07-9.43c-2.69-6.1-7.18-12.4-9.79-19.36a.63.63,0,0,0-.46-.39l-.3-.06Z" transform="translate(658.57 979.2)"/><path class="cls-25" d="M-238.57-656.49l.3.06a.63.63,0,0,1,.46.39c2.61,7,7.1,13.26,9.79,19.36q2.06,4.7,4.07,9.43c1.29,3,3.49,5.88,4.87,9.15,1.21,2.84,3.76,6.85,4,11.19.06,1.35.16,1.36.29,0l.06-.7c0-.49.22-.54.52-.15a40.37,40.37,0,0,1,6.07,11.16,20.72,20.72,0,0,0,2.45,4.89,59.17,59.17,0,0,1,6.57,12.75c1.06,2.89,3.25,4.59,4.28,7.16a93.86,93.86,0,0,0,7,13.93c3.43,5.66,5.25,12,8.92,17.66a1.84,1.84,0,0,1,.28.92,6.15,6.15,0,0,0,3.59,5.83,191.55,191.55,0,0,1-13.95,18.39c-4.67,5.44-9.65,7.19-15.11,1.79q-17.67-17.47-35.17-35.1c1.16-.81,1.61-1.67,1.36-2.57a52.51,52.51,0,0,0-5.85-12.41.75.75,0,0,0-.47-.33l-.35-.07a1.08,1.08,0,0,1-.78-.62l-1.43-3.19c0-.05-.06-.05-.08,0l-.13.28c-.1.22-.18.21-.23,0a41.75,41.75,0,0,0-7.85-16.38,1.29,1.29,0,0,1-.28-.73,12,12,0,0,0-3.4-7.79,1.59,1.59,0,0,1-.44-.85l-.32-1.64a1.18,1.18,0,0,0-.49-.75,8,8,0,0,1-3.63-7.15,1.91,1.91,0,0,0-.24-.94c-1.34-2.28-.88-4.66-2-6.7-1.59-2.84-4-5.28-5.35-7.93-1.45-3-3.05-10.38-6.14-11.24a1.44,1.44,0,0,1-.8-.56l-1.19-1.71a1.65,1.65,0,0,1-.31-1c0-3.54-3.2-5.25-3-9,0-1,.11-2,.19-3.09Z" transform="translate(658.57 979.2)"/><path class="cls-24" d="M-102.86-598.95q-10.8,67.22-55.75,118a3.23,3.23,0,0,0-1.37.42.48.48,0,0,1-.66-.17h0a148,148,0,0,1-10.13-21.79c-.42-1.15-1.62-2-3.59-2.45q49.29-60.74,46.83-139.75c-.12-1.36.37-2.15,1.48-2.37a.64.64,0,0,1,.74.48,5.56,5.56,0,0,0,2.44,3.52,1.61,1.61,0,0,1,.61.82c2.94,9.32,8.87,16.16,11.37,24.83.83,2.85,4,5.27,4.48,8.75.27,1.83.51,3.66.72,5.51a1.23,1.23,0,0,0,.32.69,2.47,2.47,0,0,1,.54,2.36,1,1,0,0,0,.19.88A1.13,1.13,0,0,0-102.86-598.95Z" transform="translate(658.57 979.2)"/><path class="cls-26" d="M-282.59-644.71c-.08,1.05-.15,2.08-.19,3.09-.19,3.72,3,5.43,3,9a1.65,1.65,0,0,0,.31,1l1.19,1.71a1.44,1.44,0,0,0,.8.56c3.09.86,4.69,8.29,6.14,11.24,1.31,2.65,3.76,5.09,5.35,7.93,1.15,2,.69,4.42,2,6.7a1.91,1.91,0,0,1,.24.94,8,8,0,0,0,3.63,7.15,1.18,1.18,0,0,1,.49.75l.32,1.64a1.59,1.59,0,0,0,.44.85,12,12,0,0,1,3.4,7.79,1.29,1.29,0,0,0,.28.73,41.75,41.75,0,0,1,7.85,16.38c.05.23.13.24.23,0l.13-.28c0-.05.05-.05.08,0l1.43,3.19a1.08,1.08,0,0,0,.78.62l.35.07a.75.75,0,0,1,.47.33A52.51,52.51,0,0,1-238-550.94c.25.9-.2,1.76-1.36,2.57q-37.18-37.12-74.28-74.28c-5.66-5.68-1.95-13.13,5.24-15.11Q-295.51-641.32-282.59-644.71Z" transform="translate(658.57 979.2)"/><path class="cls-29" d="M-354.28-578.45a4.24,4.24,0,0,1-2.81-2.82.36.36,0,0,0-.4-.24l-.3,0a.31.31,0,0,1-.33-.17l-18.42-36a1.06,1.06,0,0,1,0-.87l.19-.49c.13-.33.08-.36-.16-.09l-.24.27a.32.32,0,0,1-.46,0,.13.13,0,0,1-.06-.07.48.48,0,0,1,0-.32q11.08-3.22,22.29-6c7.05-1.72,12.13,4.61,10.38,11.3Q-349.34-596.12-354.28-578.45Z" transform="translate(658.57 979.2)"/><path class="cls-30" d="M-377.36-619.2a.48.48,0,0,0,0,.32.31.31,0,0,0,.44.1l.08-.06.24-.27c.24-.27.29-.24.16.09l-.19.49a1.06,1.06,0,0,0,0,.87l18.42,36a.31.31,0,0,0,.33.17l.3,0a.36.36,0,0,1,.4.24,4.24,4.24,0,0,0,2.81,2.82l-26.33,98.25a4.78,4.78,0,0,1-3.08-.44,2.25,2.25,0,0,0-.95-.23c-2.86,0-3.84-2-3.9-4.66q-.13-6-.06-12.06a.56.56,0,0,0-.55-.56l-6.56-.07a.87.87,0,0,1-.86-.87l0-14.5a.61.61,0,0,0-.61-.61h-6.23a1.12,1.12,0,0,1-1.13-1.12l0-14.27a.57.57,0,0,0-.55-.56l-6.07-.07a1.38,1.38,0,0,1-1.36-1.38l0-14.12a.48.48,0,0,0-.49-.48h-6.85a.63.63,0,0,1-.63-.62l-.05-14.91a.48.48,0,0,0-.48-.47h-6.84a.63.63,0,0,1-.63-.62l0-14.77a.62.62,0,0,0-.61-.61h-6.86a.5.5,0,0,1-.5-.5v-15a2.37,2.37,0,0,0-.23-1,1.63,1.63,0,0,1,0-1.46,1.58,1.58,0,0,0,.05-1,5.5,5.5,0,0,1,2.21-6.72Z" transform="translate(658.57 979.2)"/><path class="cls-27" d="M-288.82-584.24c-2.2.53-.48,2.36.3,3.06a1,1,0,0,1,.33.82,7,7,0,0,0,.8,4.48,85.33,85.33,0,0,1,7,13.5.7.7,0,0,0,.64.43h.42a.53.53,0,0,1,.52.51c0,1.7-.28,2.92.58,4.5,2.79,5.11,5.15,10.93,7.67,15.66q4.2,7.88,8.24,15.86c3.88,7.68,9.84,17.84,14,27.23a.81.81,0,0,0,.72.49c.61,0,.8.43.56,1.19a1.1,1.1,0,0,0,.16,1q5.8,7.91,7,13.38c.74,3.33,2.06,5.74,4,7.25a.21.21,0,0,0,.29,0l0,0a.45.45,0,0,1,.8.05,180.2,180.2,0,0,1-27.29,15l-.63-.57a.12.12,0,0,0-.14,0l-.21.21c-.22.22-.36.18-.4-.13l-.7-4.34a1.57,1.57,0,0,0-.38-.8A7.68,7.68,0,0,1-266-468.2a110.61,110.61,0,0,0-7.81-16.05c-15.67-28.17-29.94-57.52-44-86.53-2-4.06-5.36-11.91-8.55-17.61q-1.35-2.42-3.28-6.42c-.94-2-3-7.31-5.26-8.6a1.51,1.51,0,0,1-.57-.58l-.24-.44a.58.58,0,0,0-.53-.3l-.71,0c.89-3.8,1.6-8.7,4.41-11.34,5.52-5.19,10.55-1.54,15.13,3Q-303.12-598.67-288.82-584.24Z" transform="translate(658.57 979.2)"/><path class="cls-29" d="M-262.07-460a140.93,140.93,0,0,1-37.25,11,74,74,0,0,0-2.79-7.69q-7.87-15.52-15.77-31c-7.56-14.83-16.82-31.75-23.82-47.4-.26-.58-.52-.93-.8-1a.93.93,0,0,1-.49-.52,104.22,104.22,0,0,0-6.85-14,.48.48,0,0,0-.62-.18l-1.32.65L-337-604.7l.71,0a.58.58,0,0,1,.53.3l.24.44a1.51,1.51,0,0,0,.57.58c2.28,1.29,4.32,6.64,5.26,8.6q1.94,4,3.28,6.42c3.19,5.7,6.57,13.55,8.55,17.61,14.09,29,28.36,58.36,44,86.53A110.61,110.61,0,0,1-266-468.2a7.68,7.68,0,0,0,1.52,2.58,1.57,1.57,0,0,1,.38.8l.7,4.34c0,.31.18.35.4.13l.21-.21a.12.12,0,0,1,.14,0Z" transform="translate(658.57 979.2)"/><path class="cls-31" d="M-434.57-603.91a5.5,5.5,0,0,0-2.21,6.72,1.58,1.58,0,0,1-.05,1,1.63,1.63,0,0,0,0,1.46,2.37,2.37,0,0,1,.23,1v15a.5.5,0,0,0,.5.5h6.86a.62.62,0,0,1,.61.61l0,14.77a.63.63,0,0,0,.63.62h6.84a.48.48,0,0,1,.48.47l.05,14.91a.63.63,0,0,0,.63.62h6.85a.48.48,0,0,1,.49.48h0l0,14.12a1.38,1.38,0,0,0,1.36,1.38l6.07.07a.57.57,0,0,1,.55.56l0,14.27a1.12,1.12,0,0,0,1.13,1.12h6.23a.61.61,0,0,1,.61.61l0,14.5a.87.87,0,0,0,.86.87l6.56.07a.56.56,0,0,1,.55.56q-.07,6.07.06,12.06c.06,2.7,1,4.62,3.9,4.66a2.25,2.25,0,0,1,.95.23,4.78,4.78,0,0,0,3.08.44c-1.43,5.72-3.15,16.74-6.94,20.36q-4,3.84-10.81.89c-.26-2.23-.44-3.8-1.94-5.66a31.46,31.46,0,0,1-5.71-9.55c-1.39-3.93-3.44-6.3-4.54-11.63a1.64,1.64,0,0,0-.5-.85,15.14,15.14,0,0,1-5.47-11.13,1.15,1.15,0,0,0-.47-.85,1.71,1.71,0,0,1-.74-1.89,1.16,1.16,0,0,0-.19-.89,5.11,5.11,0,0,0-2.39-1.82c-1.88-.75-.4-3-2.72-4.16a.93.93,0,0,1-.51-.69l-.7-4a1.33,1.33,0,0,0-.38-.72c-3.12-3-3.92-5.78-6.29-9.22-1.78-2.61-1.78-5.21-2.71-8.13a.69.69,0,0,0-.78-.47l-1.17.21a.56.56,0,0,1-.66-.45v0l-.77-6.61a.81.81,0,0,0-.8-.72c-3.5,0-2.43-3.1-3.31-4.86a10.82,10.82,0,0,0-2.69-3.39,1.1,1.1,0,0,1-.4-.77,9.7,9.7,0,0,0-2.9-6.26,1.64,1.64,0,0,1-.46-.87,38.74,38.74,0,0,0-3.73-10.32.73.73,0,0,0-.76-.39,1.68,1.68,0,0,1-2.09-1.28A77.67,77.67,0,0,0-458.76-578a1.59,1.59,0,0,1-.17-.93,3.3,3.3,0,0,0-.54-2.14,1.27,1.27,0,0,0-.76-.52c-2.85-.6-4.19-7.76-5.3-10.41a5.14,5.14,0,0,1,.42-3.71Z" transform="translate(658.57 979.2)"/><path class="cls-31" d="M-465.11-595.7a5.14,5.14,0,0,0-.42,3.71c1.11,2.65,2.45,9.81,5.3,10.41a1.27,1.27,0,0,1,.76.52,3.3,3.3,0,0,1,.54,2.14,1.59,1.59,0,0,0,.17.93,77.67,77.67,0,0,1,4.62,11.62,1.68,1.68,0,0,0,2.09,1.28.73.73,0,0,1,.76.39,38.74,38.74,0,0,1,3.73,10.32,1.64,1.64,0,0,0,.46.87,9.7,9.7,0,0,1,2.9,6.26,1.1,1.1,0,0,0,.4.77,10.82,10.82,0,0,1,2.69,3.39c.88,1.76-.19,4.83,3.31,4.86a.81.81,0,0,1,.8.72l.77,6.61a.57.57,0,0,0,.62.49h0l1.17-.21a.69.69,0,0,1,.78.47c.93,2.92.93,5.52,2.71,8.13,2.37,3.44,3.17,6.19,6.29,9.22a1.33,1.33,0,0,1,.38.72l.7,4a.93.93,0,0,0,.51.69c2.32,1.14.84,3.41,2.72,4.16a5.11,5.11,0,0,1,2.39,1.82,1.16,1.16,0,0,1,.19.89,1.71,1.71,0,0,0,.74,1.89,1.15,1.15,0,0,1,.47.85A15.14,15.14,0,0,0-411-486.64a1.64,1.64,0,0,1,.5.85c1.1,5.33,3.15,7.7,4.54,11.63a31.46,31.46,0,0,0,5.71,9.55c1.5,1.86,1.68,3.43,1.94,5.66a201.13,201.13,0,0,1-54-28.48c-27.82-20.69-47.31-51.81-58.63-84.35-2.59-7.43-.19-11.57,7-13.58Q-484.61-590.75-465.11-595.7Z" transform="translate(658.57 979.2)"/><path class="cls-26" d="M-288.82-584.24q38,37.85,75.89,75.81c5.41,5.42,7.85,10.59,1.14,16.29a218.2,218.2,0,0,1-23,17.19.45.45,0,0,0-.8-.05.22.22,0,0,1-.28.11l0,0c-1.92-1.51-3.24-3.92-4-7.25q-1.23-5.47-7-13.38a1.1,1.1,0,0,1-.16-1c.24-.76.05-1.16-.56-1.19a.81.81,0,0,1-.72-.49c-4.15-9.39-10.11-19.55-14-27.23q-4-8-8.24-15.86c-2.52-4.73-4.88-10.55-7.67-15.66-.86-1.58-.54-2.8-.58-4.5a.53.53,0,0,0-.52-.51h-.42a.7.7,0,0,1-.64-.43,85.33,85.33,0,0,0-7-13.5,7,7,0,0,1-.8-4.48,1,1,0,0,0-.33-.82C-289.3-581.88-291-583.71-288.82-584.24Z" transform="translate(658.57 979.2)"/><path class="cls-30" d="M-299.32-449c-21.4,4.19-46.38,2.51-67.68-1.51-6.34-1.2-10.05-5-8.31-11.55q11.73-44.08,23.53-88.15l1.32-.65a.48.48,0,0,1,.62.18,104.22,104.22,0,0,1,6.85,14,.93.93,0,0,0,.49.52c.28.11.54.46.8,1,7,15.65,16.26,32.57,23.82,47.4q7.89,15.51,15.77,31A74,74,0,0,1-299.32-449Z" transform="translate(658.57 979.2)"/><path class="cls-25" d="M-174.36-504.95c2,.49,3.17,1.3,3.59,2.45a148,148,0,0,0,10.13,21.79.48.48,0,0,0,.65.18h0a3.23,3.23,0,0,1,1.37-.42,229,229,0,0,1-28.65,27.39c-.77-1.3-.34-2-1-3.45a183.46,183.46,0,0,0-11.33-22.22A209,209,0,0,0-174.36-504.95Z" transform="translate(658.57 979.2)"/><path d="M50.51-447c-13.12,0-23.71-11.59-23.66-25.78h0c0-14.2,10.72-25.67,23.84-25.62h0c13.11.05,23.71,11.59,23.66,25.78h0C74.3-458.4,63.62-446.93,50.51-447Zm0-2.38c11.74.06,21.31-10.33,21.38-23.21h0c.06-12.88-9.4-23.37-21.13-23.43h0c-11.74-.06-21.31,10.33-21.37,23.21s9.39,23.37,21.12,23.43Z" transform="translate(658.57 979.2)"/><path d="M593.52-447c-13.11,0-23.7-11.59-23.65-25.78h0c0-14.2,10.71-25.67,23.83-25.62s23.7,11.59,23.65,25.78h0C617.3-458.4,606.63-446.93,593.52-447Zm0-2.39c11.74.06,21.31-10.33,21.38-23.2h0c.06-12.87-9.4-23.36-21.13-23.42s-21.31,10.33-21.37,23.2h0C572.29-459.92,581.75-449.43,593.48-449.37Z" transform="translate(658.57 979.2)"/><path d="M-.23-469.68q9.06-13.67,18-27.44a2,2,0,0,1,2.74-.9.53.53,0,0,1,.19.72v0l-19.49,30a1.62,1.62,0,0,0-.26.88v18.61a.63.63,0,0,1-.63.62H-1.07a.5.5,0,0,1-.5-.5v-18.51a1.7,1.7,0,0,0-.29-1l-19.65-30.18a.49.49,0,0,1,.15-.69l0,0c1.14-.61,2.1-.1,2.78.95Q-9.67-483.4-.78-469.68a.32.32,0,0,0,.45.09A.28.28,0,0,0-.23-469.68Z" transform="translate(658.57 979.2)"/><path d="M91.7-455.71c-6.51-10-4.28-30.35-4.26-42a.53.53,0,0,1,.53-.53h1.55a.65.65,0,0,1,.65.64q0,13.32.08,26.61c.07,13.8,7.23,23.33,22.18,21.19,11.38-1.62,14.66-12.28,14.72-22.23q.06-12.76,0-25.56a.65.65,0,0,1,.66-.65h1.31a.53.53,0,0,1,.53.53c0,11.54,1.69,26.81-1.94,37.72C122.52-444.31,100.46-442.31,91.7-455.71Z" transform="translate(658.57 979.2)"/><path d="M148.93-466.7v18.88a.63.63,0,0,1-.63.62h-1.48a.65.65,0,0,1-.65-.65h0q.22-20.86.29-41.71c0-1.85-.46-5.35-.05-8.1a.59.59,0,0,1,.58-.51q11,0,21.94,0,4.14,0,8.29,4.4c8.31,8.77,5.25,23.73-7.25,26.22a.37.37,0,0,0-.29.42.31.31,0,0,0,.06.13l12.1,19.14a.4.4,0,0,1-.12.54l-.08,0c-1.46.54-2.33.07-3.13-1.22Q172.8-457.7,167-466.78a.92.92,0,0,0-.77-.42H149.43A.5.5,0,0,0,148.93-466.7Zm24.82-27.07c-4.73-3.42-18.26-1.94-24.32-1.89a.5.5,0,0,0-.5.5v24.93a.5.5,0,0,0,.5.5l18.34.05C180.67-469.66,183-487.1,173.75-493.77Z" transform="translate(658.57 979.2)"/><path d="M220.93-471.7v24a.5.5,0,0,1-.5.5h-1.58a.63.63,0,0,1-.63-.62h0q.33-21.94.18-43.87c0-1.49-.48-3.94-.05-6a.61.61,0,0,1,.62-.5h1.34a.63.63,0,0,1,.62.63v22.37a.5.5,0,0,0,.5.5h32.88a.63.63,0,0,0,.62-.63v-22.33a.54.54,0,0,1,.54-.54h1.32a.61.61,0,0,1,.61.61h0l0,49.78a.62.62,0,0,1-.62.62h-1.38a.52.52,0,0,1-.52-.52h0l0-24a.51.51,0,0,0-.49-.51h-33A.5.5,0,0,0,220.93-471.7Z" transform="translate(658.57 979.2)"/><path d="M277.43-449.7h30.25a.5.5,0,0,1,.5.5v1.37a.63.63,0,0,1-.63.63H274.71a.38.38,0,0,1-.39-.39h0q.18-21.65.1-42.83a49,49,0,0,1,0-7.3.56.56,0,0,1,.55-.48h31.85a.63.63,0,0,1,.62.63v1.37a.5.5,0,0,1-.5.5h-29.5a.5.5,0,0,0-.5.5v20a.5.5,0,0,0,.5.5h25.63a.63.63,0,0,1,.62.63v1.37a.5.5,0,0,1-.5.5H277.43a.5.5,0,0,0-.5.5v21.5A.5.5,0,0,0,277.43-449.7Z" transform="translate(658.57 979.2)"/><path d="M326.71-464.68l-7.26,17a.79.79,0,0,1-.73.48H317.3a.51.51,0,0,1-.51-.51.45.45,0,0,1,0-.2l21.46-49.55a1.5,1.5,0,0,1,2-.78,1.56,1.56,0,0,1,.79.79l21.38,49.52a.49.49,0,0,1-.25.63h0c-1.37.57-2.16.08-2.71-1.25q-3.37-8.08-6.81-16.12a.9.9,0,0,0-.82-.55l-24.38,0A.83.83,0,0,0,326.71-464.68Zm1.29-3a.32.32,0,0,0,.17.42l.12,0h22.8a.32.32,0,0,0,.31-.33.43.43,0,0,0,0-.11L340-494.33a.32.32,0,0,0-.43-.15.28.28,0,0,0-.15.15Z" transform="translate(658.57 979.2)"/><path d="M377.28-449.45h30.55a.35.35,0,0,1,.35.35v1.55a.35.35,0,0,1-.35.35H374.78a.35.35,0,0,1-.35-.35v-50.3a.35.35,0,0,1,.35-.35h1.8a.35.35,0,0,1,.35.35v48.05A.35.35,0,0,0,377.28-449.45Z" transform="translate(658.57 979.2)"/><path d="M424.58-495.95H406a.35.35,0,0,1-.35-.35v-1.55a.35.35,0,0,1,.35-.35h40.05a.35.35,0,0,1,.35.35v1.55a.35.35,0,0,1-.35.35h-18.3a.35.35,0,0,0-.35.35v48.05a.35.35,0,0,1-.35.35h-1.8a.35.35,0,0,1-.35-.35V-495.6A.35.35,0,0,0,424.58-495.95Z" transform="translate(658.57 979.2)"/><path d="M460.93-471.77v24.17a.43.43,0,0,1-.43.43h0l-2-.12a.43.43,0,0,1-.4-.44l.19-49.94a.42.42,0,0,1,.39-.42l1.78-.15a.43.43,0,0,1,.46.39.06.06,0,0,1,0,0v22.68a.43.43,0,0,0,.43.43h33.15a.43.43,0,0,0,.43-.43h0l0-22.64a.43.43,0,0,1,.43-.43h1.57a.43.43,0,0,1,.43.43h0l.08,50.15a.43.43,0,0,1-.43.43h-1.66a.43.43,0,0,1-.43-.43h0l.05-24.14a.43.43,0,0,0-.43-.43H461.36a.43.43,0,0,0-.43.43Z" transform="translate(658.57 979.2)"/><path d="M530.15-449.91a.55.55,0,0,1-.2-.73l.46-.88a.61.61,0,0,1,.83-.26h0c7.81,4.19,19.44,3.87,21.48-6.63,2.4-12.33,1.2-26.55,1.21-39.15a.64.64,0,0,1,.64-.64h1.31a.52.52,0,0,1,.52.52h0c.06,13,1.28,27.79-1.58,40.45C552.17-445.43,538.85-444.79,530.15-449.91Z" transform="translate(658.57 979.2)"/><path d="M635.69-454.34c-7.69-9.93-5.33-31.65-5.23-43.34a.51.51,0,0,1,.51-.52h1.56a.64.64,0,0,1,.64.63h0q0,13.19,0,26.35a27.47,27.47,0,0,0,4.35,15.44c4.24,6.49,14.84,7.71,21.18,5.29,8.81-3.35,11.42-12.59,11.47-21.14s.05-17.36,0-26.05a.52.52,0,0,1,.52-.53h1.44a.52.52,0,0,1,.53.52h0q0,14,0,28c0,6.34-2.95,14.64-8,18.61C656.13-444.48,642.44-445.62,635.69-454.34Z" transform="translate(658.57 979.2)"/><path d="M691.93-466.7v18.89a.63.63,0,0,1-.63.62h0l-1.5,0a.67.67,0,0,1-.66-.67l.17-49.57a.6.6,0,0,1,.59-.6c6.74-.16,20.38-1.6,26.26,1.25,12.43,6,11.54,27.57-3.25,29.17a.34.34,0,0,0-.29.37.29.29,0,0,0,0,.13L724.79-448a.47.47,0,0,1-.14.63l0,0a2,2,0,0,1-2.91-.88q-5.79-9.35-11.74-18.57a1,1,0,0,0-.78-.42H692.43A.5.5,0,0,0,691.93-466.7Zm24.82-27.06c-4.73-3.44-18.27-1.95-24.32-1.9a.5.5,0,0,0-.5.5v24.92a.51.51,0,0,0,.51.52h0q9,0,18.17.07C723.61-469.51,726-487,716.75-493.76Z" transform="translate(658.57 979.2)"/><path d="M742.25-493.06a.19.19,0,0,0-.26,0,.17.17,0,0,0-.06.15v45.12a.63.63,0,0,1-.63.62h-1.37a.5.5,0,0,1-.5-.5v-49.46a1.21,1.21,0,0,1,1.22-1.2,1.24,1.24,0,0,1,.93.45L778.14-452c.36.45.54.39.54-.19v-45.42a.63.63,0,0,1,.63-.63h1.62a.51.51,0,0,1,.5.5v49.88a.63.63,0,0,1-.63.62h-1.57a1.06,1.06,0,0,1-.83-.4Z" transform="translate(658.57 979.2)"/><path d="M801.43-449.7h30.12a.63.63,0,0,1,.63.63h0v1.24a.63.63,0,0,1-.63.63H799a.6.6,0,0,1-.6-.6q0-22,0-43.77c0-1.38-.5-4.09,0-6.15a.61.61,0,0,1,.6-.48h31.86a.63.63,0,0,1,.62.63v1.37a.5.5,0,0,1-.5.5h-29.5a.5.5,0,0,0-.5.5v20a.5.5,0,0,0,.5.5h25.75a.5.5,0,0,1,.5.5v1.5a.5.5,0,0,1-.5.5H801.43a.5.5,0,0,0-.5.5v21.5A.5.5,0,0,0,801.43-449.7Z" transform="translate(658.57 979.2)"/><path d="M862.77-469.68q9.06-13.68,18-27.42c.69-1.06,1.58-1.55,2.71-.91a.51.51,0,0,1,.2.68l0,0-19.47,30a1.67,1.67,0,0,0-.28.94v18.58a.63.63,0,0,1-.63.62h-1.37a.5.5,0,0,1-.5-.5v-18.5a1.78,1.78,0,0,0-.29-1l-19.65-30.18a.49.49,0,0,1,.15-.69l0,0c1.14-.61,2.1-.1,2.79.95q8.89,13.69,17.76,27.42a.32.32,0,0,0,.45.1A.28.28,0,0,0,862.77-469.68Z" transform="translate(658.57 979.2)"/><ellipse class="cls-22" cx="50.62" cy="-472.68" rx="23.32" ry="21.25" transform="matrix(0.01, -1, 1, 0.01, 1181.6, 559.61)"/><ellipse class="cls-22" cx="593.61" cy="-472.68" rx="23.31" ry="21.25" transform="translate(1721.75 1102.59) rotate(-89.7)"/><path class="cls-22" d="M173.75-493.77c9.2,6.67,6.92,24.11-6,24.09l-18.34-.05a.5.5,0,0,1-.5-.5v-24.93a.5.5,0,0,1,.5-.5C155.49-495.71,169-497.19,173.75-493.77Z" transform="translate(658.57 979.2)"/><path class="cls-22" d="M716.75-493.76c9.27,6.73,6.86,24.25-6.14,24.11q-9.15-.09-18.17-.07a.51.51,0,0,1-.51-.52h0v-24.92a.5.5,0,0,1,.5-.5C698.48-495.71,712-497.2,716.75-493.76Z" transform="translate(658.57 979.2)"/><path class="cls-22" d="M328-467.64l11.4-26.69a.31.31,0,0,1,.42-.15.33.33,0,0,1,.16.15l11.4,26.69a.34.34,0,0,1-.18.42l-.11,0h-22.8a.32.32,0,0,1-.32-.33A.23.23,0,0,1,328-467.64Z" transform="translate(658.57 979.2)"/><path class="cls-26" d="M-199.55-479.23A183.46,183.46,0,0,1-188.22-457c.62,1.44.19,2.15,1,3.45A222.14,222.14,0,0,1-222.82-430a12.22,12.22,0,0,1-2.46-4.22c-1.54-4.56-4.14-8.68-5.82-13.1a57.73,57.73,0,0,0-3.34-7.23.08.08,0,0,1,0-.12h0l.1,0c.15-.06.17-.13.06-.22a.36.36,0,0,0-.33-.06A209.88,209.88,0,0,0-199.55-479.23Z" transform="translate(658.57 979.2)"/><path class="cls-27" d="M-234.57-455a.36.36,0,0,1,.33.06c.11.09.09.16-.06.22l-.1,0a.09.09,0,0,0,0,.12h0a57.73,57.73,0,0,1,3.34,7.23c1.68,4.42,4.28,8.54,5.82,13.1a12.22,12.22,0,0,0,2.46,4.22,210.43,210.43,0,0,1-24.75,11.5l-.29-1.11q0-.16-.15,0l-.17.19c-.07.09-.12.08-.14,0-.83-3.69-3-7-4.27-10.19-1.95-4.72-4.57-8.63-5.77-14A251,251,0,0,0-234.57-455Z" transform="translate(658.57 979.2)"/><path class="cls-29" d="M-258.36-443.7c1.2,5.41,3.82,9.32,5.77,14,1.3,3.16,3.44,6.5,4.27,10.19,0,.11.07.12.14,0l.17-.19q.1-.14.15,0l.29,1.11a175.62,175.62,0,0,1-22.5,7.5l.21-.58a.18.18,0,0,0-.12-.21h0c-.7,0-10.14-19.23-10.89-21.32a10.44,10.44,0,0,0-1.63-2.91Q-270.31-439.29-258.36-443.7Z" transform="translate(658.57 979.2)"/><path class="cls-30" d="M-282.55-436a10.44,10.44,0,0,1,1.63,2.91c.75,2.09,10.19,21.36,10.89,21.32a.17.17,0,0,1,.17.16v.06l-.21.58a226.93,226.93,0,0,1-74.78,8.6,10.86,10.86,0,0,0-3.41-5.89,1.09,1.09,0,0,1-.37-.83l-.05-7.7a1.26,1.26,0,0,0-1.24-1.26l-6-.11a.54.54,0,0,1-.54-.53c0-2.17-1.22-11,.66-12A210.29,210.29,0,0,0-282.55-436Z" transform="translate(658.57 979.2)"/><rect class="cls-22" x="589.65" y="86.36" width="987.05" height="502.69"/><text class="cls-32" transform="translate(617.4 356.26)">f<tspan class="cls-33" x="96.31" y="0">r</tspan><tspan x="212.41" y="0">wk</tspan><tspan class="cls-34" x="609.85" y="0">Nutri</tspan></text><text class="cls-35" transform="translate(609.94 524.41)"><tspan class="cls-36">c</tspan><tspan class="cls-37" x="79.26" y="0">oding </tspan><tspan class="cls-38" x="558.55" y="0">y</tspan><tspan x="641.22" y="0">our health</tspan></text><text x="658.57" y="979.2"/></svg>